<svg width="34" height="16" viewBox="0 0 34 16" fill="none" xmlns="http://www.w3.org/2000/svg">
<path d="M18.4309 8C18.4309 12.1439 21.7769 15.5 25.9003 15.5C30.0237 15.5 33.3696 12.1439 33.3696 8C33.3696 3.85605 30.0237 0.5 25.9003 0.5C21.7769 0.5 18.4309 3.85605 18.4309 8Z" stroke="white"/>
<path d="M9.4655 8C9.4655 11.5917 12.3655 14.5 15.9387 14.5C19.5119 14.5 22.4119 11.5917 22.4119 8C22.4119 4.40834 19.5119 1.5 15.9387 1.5C12.3655 1.5 9.4655 4.40834 9.4655 8Z" stroke="white"/>
<path d="M0.500078 8C0.500078 11.0394 2.95403 13.5 5.97709 13.5C9.00015 13.5 11.4541 11.0394 11.4541 8C11.4541 4.96062 9.00015 2.5 5.97709 2.5C2.95403 2.5 0.500078 4.96062 0.500078 8Z" fill="white" stroke="white"/>
</svg>
