<svg width="21" height="22" viewBox="0 0 21 22" fill="none" xmlns="http://www.w3.org/2000/svg">
<path fill-rule="evenodd" clip-rule="evenodd" d="M10.6214 2.13742C10.5459 2.09547 10.4541 2.09547 10.3786 2.13742L2.37859 6.58186C2.29922 6.62595 2.25 6.70961 2.25 6.8004V15.6236C2.25 15.7144 2.29922 15.798 2.37859 15.8421L10.3786 20.2866C10.4541 20.3285 10.5459 20.3285 10.6214 20.2866L18.6214 15.8421C18.7008 15.798 18.75 15.7144 18.75 15.6236V6.8004C18.75 6.70961 18.7008 6.62595 18.6214 6.58186L10.6214 2.13742ZM9.65012 0.826182C10.1787 0.532549 10.8213 0.532549 11.3499 0.826182L19.3499 5.27063C19.9054 5.57927 20.25 6.16486 20.25 6.8004V15.6236C20.25 16.2591 19.9054 16.8447 19.3499 17.1534L11.3499 21.5978C10.8213 21.8914 10.1787 21.8914 9.65012 21.5978L1.65013 17.1534C1.09456 16.8447 0.75 16.2591 0.75 15.6236V6.8004C0.75 6.16486 1.09456 5.57927 1.65012 5.27063L9.65012 0.826182Z" fill="#4238E5"/>
<path fill-rule="evenodd" clip-rule="evenodd" d="M9.75 9.93736V1.212H11.25V9.93736L19.1358 5.55638L19.8642 6.86762L11.25 11.6533V21.212H9.75V12.4866L1.86423 16.8676L1.13577 15.5564L8.95566 11.212L1.13577 6.86762L1.86423 5.55638L9.75 9.93736Z" fill="#4238E5"/>
</svg>
