<svg width="26" height="24" viewBox="0 0 26 24" fill="none" xmlns="http://www.w3.org/2000/svg">
<path fill-rule="evenodd" clip-rule="evenodd" d="M4.39537 3.17837C4.89243 3.17837 5.29537 3.58132 5.29537 4.07837V12.0784C5.29537 12.5754 4.89243 12.9784 4.39537 12.9784C3.89831 12.9784 3.49537 12.5754 3.49537 12.0784V4.07837C3.49537 3.58132 3.89831 3.17837 4.39537 3.17837Z" fill="#4238E5"/>
<path fill-rule="evenodd" clip-rule="evenodd" d="M20.3954 10.1784C20.8924 10.1784 21.2954 10.5813 21.2954 11.0784V19.0784C21.2954 19.5754 20.8924 19.9784 20.3954 19.9784C19.8983 19.9784 19.4954 19.5754 19.4954 19.0784V11.0784C19.4954 10.5813 19.8983 10.1784 20.3954 10.1784Z" fill="#4238E5"/>
<path fill-rule="evenodd" clip-rule="evenodd" d="M15.67 0.45015C15.9186 0.880614 15.7711 1.43105 15.3406 1.67957L8.41241 5.67957C7.98194 5.9281 7.43151 5.78061 7.18298 5.35015C6.93445 4.91969 7.08194 4.36926 7.51241 4.12073L14.4406 0.120727C14.8711 -0.127801 15.4215 0.0196869 15.67 0.45015Z" fill="#4238E5"/>
<path fill-rule="evenodd" clip-rule="evenodd" d="M17.6078 17.8066C17.8563 18.2371 17.7088 18.7875 17.2784 19.036L10.3502 23.036C9.91969 23.2845 9.36926 23.1371 9.12073 22.7066C8.8722 22.2761 9.01969 21.7257 9.45015 21.4772L16.3784 17.4772C16.8088 17.2286 17.3592 17.3761 17.6078 17.8066Z" fill="#4238E5"/>
<path fill-rule="evenodd" clip-rule="evenodd" d="M23.67 8.85015C23.4215 9.28061 22.8711 9.4281 22.4406 9.17957L15.5124 5.17957C15.0819 4.93104 14.9345 4.38061 15.183 3.95015C15.4315 3.51969 15.9819 3.3722 16.4124 3.62073L23.3406 7.62073C23.7711 7.86926 23.9186 8.41969 23.67 8.85015Z" fill="#4238E5"/>
<path fill-rule="evenodd" clip-rule="evenodd" d="M9.60778 19.2066C9.35925 19.6371 8.80882 19.7845 8.37835 19.536L1.45015 15.536C1.01969 15.2875 0.872199 14.7371 1.12073 14.3066C1.36926 13.8761 1.91969 13.7286 2.35015 13.9772L9.27835 17.9772C9.70882 18.2257 9.8563 18.7761 9.60778 19.2066Z" fill="#4238E5"/>
</svg>
