<svg width="24" height="24" viewBox="0 0 24 24" fill="none" xmlns="http://www.w3.org/2000/svg">
<path fill-rule="evenodd" clip-rule="evenodd" d="M11.6214 3.13742C11.5459 3.09547 11.4541 3.09547 11.3786 3.13742L4.04434 7.212L11.5 11.354L18.9557 7.212L11.6214 3.13742ZM19.75 8.48663L12.25 12.6533V20.9374L19.6214 16.8421C19.7008 16.798 19.75 16.7144 19.75 16.6236V8.48663ZM10.75 20.9374V12.6533L3.25 8.48663V16.6236C3.25 16.7144 3.29922 16.798 3.37859 16.8421L10.75 20.9374ZM10.6501 1.82618C11.1787 1.53255 11.8213 1.53255 12.3499 1.82618L20.8642 6.55638C21.1023 6.68866 21.25 6.93962 21.25 7.212V16.6236C21.25 17.2591 20.9054 17.8447 20.3499 18.1534L11.8642 22.8676C11.6377 22.9935 11.3623 22.9935 11.1358 22.8676L2.65013 18.1534C2.09456 17.8447 1.75 17.2591 1.75 16.6236V7.212C1.75 6.93962 1.89767 6.68866 2.13577 6.55638L10.6501 1.82618Z" fill="#4238E5"/>
</svg>
