<svg width="20" height="20" viewBox="0 0 20 20" fill="none" xmlns="http://www.w3.org/2000/svg">
<path fill-rule="evenodd" clip-rule="evenodd" d="M10 18.5C14.6944 18.5 18.5 14.6944 18.5 10C18.5 5.30558 14.6944 1.5 10 1.5C5.30558 1.5 1.5 5.30558 1.5 10C1.5 14.6944 5.30558 18.5 10 18.5ZM10 20C15.5228 20 20 15.5228 20 10C20 4.47715 15.5228 0 10 0C4.47715 0 0 4.47715 0 10C0 15.5228 4.47715 20 10 20Z" fill="#4238E5"/>
<path fill-rule="evenodd" clip-rule="evenodd" d="M10 18.5C13.0376 18.5 15.5 16.0376 15.5 13C15.5 9.96243 13.0376 7.5 10 7.5C6.96243 7.5 4.5 9.96243 4.5 13C4.5 16.0376 6.96243 18.5 10 18.5ZM10 20C13.866 20 17 16.866 17 13C17 9.13401 13.866 6 10 6C6.13401 6 3 9.13401 3 13C3 16.866 6.13401 20 10 20Z" fill="#4238E5"/>
<path fill-rule="evenodd" clip-rule="evenodd" d="M10 18.5C11.3807 18.5 12.5 17.3807 12.5 16C12.5 14.6193 11.3807 13.5 10 13.5C8.61929 13.5 7.5 14.6193 7.5 16C7.5 17.3807 8.61929 18.5 10 18.5ZM10 20C12.2091 20 14 18.2091 14 16C14 13.7909 12.2091 12 10 12C7.79086 12 6 13.7909 6 16C6 18.2091 7.79086 20 10 20Z" fill="#4238E5"/>
</svg>
