<svg width="118" height="34" viewBox="0 0 118 34" fill="none" xmlns="http://www.w3.org/2000/svg">
<path fill-rule="evenodd" clip-rule="evenodd" d="M10.6514 0C11.2037 0 11.6514 0.447715 11.6514 1V18.5997C11.6514 18.61 11.6514 18.61 11.6514 18.6203C11.6718 20.6366 13.3596 22.3135 15.3645 22.3135H15.3747C17.3796 22.3032 19.0572 20.6469 19.0674 18.6408C19.0674 18.6306 19.0674 18.6203 19.0674 18.6203L19.0577 1.01084C19.0574 0.458337 19.5052 0.0102874 20.0577 0.0102874H29.6773C30.2296 0.0102874 30.6773 0.458003 30.6773 1.01029V6.3062C26.596 6.3062 23.292 9.62905 23.292 13.7337C23.292 17.7664 26.4834 21.0481 30.4727 21.1613C29.2657 28.4551 22.9953 34 15.385 34H15.3236C6.85399 34 0.051708 27.0971 0.041479 18.5997L0.0318003 1.00055C0.0314964 0.448051 0.479301 0 1.0318 0H10.6514Z" fill="url(#paint0_linear_19_363)"/>
<path fill-rule="evenodd" clip-rule="evenodd" d="M20.1107 33.239L20.1925 33.2184C14.3722 35.0187 8.32689 33.7842 3.7443 28.6713C0.849491 25.0913 -0.163179 22.252 0.0209428 15.5857C0.0209428 14.9787 0.0209428 10.0202 0.0311718 10.0099C0.0823167 7.88041 1.6985 6.26528 3.72384 6.30643C5.70826 6.29615 7.41651 7.88041 7.39605 9.90704C7.45742 14.0014 7.45742 16.5733 7.41651 18.5999C6.97666 25.5028 12.2855 30.9654 19.0673 31.0477C23.9568 30.9449 27.9154 28.1672 29.8589 23.5173C28.2837 28.0644 25.1229 31.4695 20.1107 33.239Z" fill="url(#paint1_linear_19_363)"/>
<path d="M30.7177 18.3634C33.2769 18.3634 35.3515 16.2769 35.3515 13.7032C35.3515 11.1294 33.2769 9.04297 30.7177 9.04297C28.1586 9.04297 26.084 11.1294 26.084 13.7032C26.084 16.2769 28.1586 18.3634 30.7177 18.3634Z" fill="#13D9F7"/>
<path d="M43.1449 25.4839C41.9817 25.4839 40.8453 25.3298 39.7357 25.0218C38.6261 24.7137 37.7403 24.3241 37.0781 23.8529L38.3667 21.2706C39.0109 21.7055 39.7805 22.0589 40.6753 22.3307C41.588 22.5844 42.4828 22.7113 43.3597 22.7113C45.3641 22.7113 46.3663 22.1767 46.3663 21.1075C46.3663 20.6001 46.1068 20.2468 45.5878 20.0474C45.0867 19.8481 44.2724 19.6578 43.1449 19.4766C41.9638 19.2954 40.9974 19.087 40.2458 18.8514C39.512 18.6158 38.8677 18.2081 38.313 17.6282C37.7761 17.0302 37.5076 16.2057 37.5076 15.1546C37.5076 13.7774 38.0714 12.6811 39.1988 11.8656C40.3442 11.032 41.8833 10.6152 43.816 10.6152C44.8003 10.6152 45.7846 10.733 46.7689 10.9686C47.7532 11.1861 48.5585 11.4851 49.1849 11.8656L47.8964 14.4479C46.6794 13.7231 45.3104 13.3606 43.7892 13.3606C42.8049 13.3606 42.0533 13.5147 41.5343 13.8227C41.0332 14.1127 40.7826 14.5023 40.7826 14.9916C40.7826 15.5352 41.0511 15.9248 41.588 16.1604C42.1428 16.3778 42.9928 16.5862 44.1382 16.7856C45.2835 16.9668 46.2231 17.1752 46.9568 17.4108C47.6906 17.6463 48.3169 18.045 48.8359 18.6068C49.3728 19.1685 49.6413 19.9659 49.6413 20.9988C49.6413 22.3579 49.0596 23.4452 47.8964 24.2607C46.7331 25.0761 45.1493 25.4839 43.1449 25.4839Z" fill="#101010"/>
<path d="M60.4769 10.6152C61.8728 10.6152 63.1166 10.9233 64.2083 11.5394C65.3179 12.1556 66.1858 13.0254 66.8122 14.1489C67.4386 15.2724 67.7517 16.5681 67.7517 18.036C67.7517 19.5038 67.4386 20.8085 66.8122 21.9502C66.1858 23.0737 65.3179 23.9435 64.2083 24.5597C63.1166 25.1758 61.8728 25.4839 60.4769 25.4839C58.5441 25.4839 57.014 24.8315 55.8866 23.5267V30.5669H52.531V10.7783H55.7255V12.6811C56.2803 11.9925 56.9603 11.476 57.7657 11.1317C58.5889 10.7874 59.4926 10.6152 60.4769 10.6152ZM60.1011 22.5754C61.336 22.5754 62.3471 22.1586 63.1345 21.325C63.9398 20.4914 64.3425 19.3951 64.3425 18.036C64.3425 16.6768 63.9398 15.5805 63.1345 14.7469C62.3471 13.9133 61.336 13.4965 60.1011 13.4965C59.2958 13.4965 58.571 13.6868 57.9267 14.0674C57.2825 14.4298 56.7724 14.9553 56.3966 15.6439C56.0208 16.3325 55.8329 17.1299 55.8329 18.036C55.8329 18.942 56.0208 19.7394 56.3966 20.428C56.7724 21.1166 57.2825 21.6512 57.9267 22.0317C58.571 22.3942 59.2958 22.5754 60.1011 22.5754Z" fill="#101010"/>
<path d="M84.6756 10.7783V25.2936H81.4812V23.418C80.9264 24.1066 80.2374 24.6231 79.4141 24.9674C78.6088 25.3117 77.714 25.4839 76.7297 25.4839C75.3338 25.4839 74.0811 25.1758 72.9715 24.5597C71.8798 23.9435 71.0208 23.0737 70.3945 21.9502C69.786 20.8267 69.4817 19.5219 69.4817 18.036C69.4817 16.55 69.786 15.2543 70.3945 14.1489C71.0208 13.0254 71.8798 12.1556 72.9715 11.5394C74.0811 10.9233 75.3338 10.6152 76.7297 10.6152C77.6603 10.6152 78.5104 10.7783 79.2799 11.1045C80.0674 11.4307 80.7474 11.9109 81.3201 12.5452V10.7783H84.6756ZM77.1055 22.5754C78.3404 22.5754 79.3605 22.1586 80.1658 21.325C80.9711 20.4914 81.3738 19.3951 81.3738 18.036C81.3738 16.6768 80.9711 15.5805 80.1658 14.7469C79.3605 13.9133 78.3404 13.4965 77.1055 13.4965C75.8707 13.4965 74.8506 13.9133 74.0453 14.7469C73.2578 15.5805 72.8641 16.6768 72.8641 18.036C72.8641 19.3951 73.2578 20.4914 74.0453 21.325C74.8506 22.1586 75.8707 22.5754 77.1055 22.5754Z" fill="#101010"/>
<path d="M95.3716 25.4839C93.8863 25.4839 92.553 25.1667 91.3718 24.5325C90.1907 23.8982 89.269 23.0193 88.6069 21.8958C87.9447 20.7542 87.6136 19.4675 87.6136 18.036C87.6136 16.6044 87.9447 15.3268 88.6069 14.2033C89.269 13.0797 90.1817 12.2009 91.345 11.5666C92.5261 10.9324 93.8684 10.6152 95.3716 10.6152C96.7854 10.6152 98.0203 10.9052 99.0762 11.4851C100.15 12.0649 100.955 12.8985 101.492 13.9858L98.9151 15.508C98.5035 14.8375 97.9845 14.3392 97.3581 14.013C96.7496 13.6687 96.0785 13.4965 95.3448 13.4965C94.0921 13.4965 93.0541 13.9133 92.2309 14.7469C91.4076 15.5624 90.996 16.6587 90.996 18.036C90.996 19.4132 91.3987 20.5186 92.204 21.3522C93.0272 22.1676 94.0742 22.5754 95.3448 22.5754C96.0785 22.5754 96.7496 22.4123 97.3581 22.0861C97.9845 21.7418 98.5035 21.2344 98.9151 20.5639L101.492 22.0861C100.937 23.1734 100.123 24.016 99.0493 24.614C97.9934 25.1939 96.7675 25.4839 95.3716 25.4839Z" fill="#101010"/>
<path d="M118 10.7783V23.0918C118 28.2021 115.522 30.7572 110.564 30.7572C109.258 30.7572 108.005 30.576 106.806 30.2135C105.625 29.8692 104.65 29.3618 103.88 28.6913L105.383 26.1362C105.992 26.6618 106.734 27.0785 107.611 27.3866C108.488 27.6947 109.41 27.8487 110.376 27.8487C111.844 27.8487 112.918 27.4863 113.598 26.7614C114.296 26.0547 114.645 24.9583 114.645 23.4724V22.7928C114.108 23.3908 113.455 23.8529 112.685 24.1791C111.915 24.4872 111.083 24.6412 110.188 24.6412C108.274 24.6412 106.761 24.1066 105.652 23.0375C104.56 21.9683 104.014 20.3646 104.014 18.2262V10.7783H107.37V17.7913C107.37 19.0779 107.656 20.0474 108.229 20.6998C108.819 21.3341 109.652 21.6512 110.725 21.6512C111.924 21.6512 112.873 21.2797 113.571 20.5367C114.287 19.7937 114.645 18.7155 114.645 17.302V10.7783H118Z" fill="#101010"/>
<defs>
<linearGradient id="paint0_linear_19_363" x1="6.83693" y1="16.2479" x2="30.6687" y2="14.3003" gradientUnits="userSpaceOnUse">
<stop stop-color="#2A18F0"/>
<stop offset="0.631373" stop-color="#861ACC"/>
<stop offset="1" stop-color="#E31DA8"/>
</linearGradient>
<linearGradient id="paint1_linear_19_363" x1="1.756" y1="9.96318" x2="18.7464" y2="36.3058" gradientUnits="userSpaceOnUse">
<stop stop-color="#13D9F7"/>
<stop offset="1" stop-color="#452AF4"/>
</linearGradient>
</defs>
</svg>
