<svg width="118" height="34" viewBox="0 0 118 34" fill="none" xmlns="http://www.w3.org/2000/svg">
<path fill-rule="evenodd" clip-rule="evenodd" d="M10.6514 0C11.2037 0 11.6514 0.447715 11.6514 1V18.5997C11.6514 18.61 11.6514 18.61 11.6514 18.6203C11.6718 20.6366 13.3596 22.3135 15.3645 22.3135H15.3747C17.3796 22.3032 19.0572 20.6469 19.0674 18.6408C19.0674 18.6306 19.0674 18.6203 19.0674 18.6203L19.0577 1.01084C19.0574 0.458337 19.5052 0.0102874 20.0577 0.0102874H29.6773C30.2296 0.0102874 30.6773 0.458003 30.6773 1.01029V6.3062C26.596 6.3062 23.292 9.62905 23.292 13.7337C23.292 17.7664 26.4834 21.0481 30.4727 21.1613C29.2657 28.4551 22.9953 34 15.385 34H15.3236C6.85399 34 0.051708 27.0971 0.041479 18.5997L0.0318003 1.00055C0.0314964 0.448051 0.479301 0 1.0318 0H10.6514Z" fill="url(#paint0_linear_6_637)"/>
<path fill-rule="evenodd" clip-rule="evenodd" d="M20.1107 33.2387L20.1925 33.2181C14.3722 35.0184 8.32689 33.784 3.7443 28.6711C0.849491 25.0911 -0.163179 22.2517 0.0209428 15.5855C0.0209428 14.9785 0.0209428 10.02 0.0311718 10.0097C0.0823167 7.88017 1.6985 6.26504 3.72384 6.30619C5.70826 6.2959 7.41651 7.88017 7.39605 9.90679C7.45742 14.0012 7.45742 16.5731 7.41651 18.5997C6.97666 25.5026 12.2855 30.9652 19.0673 31.0475C23.9568 30.9446 27.9154 28.167 29.8589 23.5171C28.2837 28.0641 25.1229 31.4693 20.1107 33.2387Z" fill="url(#paint1_linear_6_637)"/>
<path d="M30.7177 18.3631C33.2769 18.3631 35.3515 16.2767 35.3515 13.7029C35.3515 11.1292 33.2769 9.04272 30.7177 9.04272C28.1586 9.04272 26.084 11.1292 26.084 13.7029C26.084 16.2767 28.1586 18.3631 30.7177 18.3631Z" fill="#13D9F7"/>
<path d="M43.1447 25.4839C41.9814 25.4839 40.845 25.3298 39.7355 25.0218C38.6259 24.7137 37.74 24.3241 37.0779 23.8529L38.3664 21.2706C39.0107 21.7055 39.7802 22.0589 40.675 22.3307C41.5877 22.5844 42.4825 22.7113 43.3595 22.7113C45.3638 22.7113 46.366 22.1767 46.366 21.1075C46.366 20.6001 46.1065 20.2468 45.5875 20.0474C45.0864 19.8481 44.2722 19.6578 43.1447 19.4766C41.9635 19.2954 40.9972 19.087 40.2455 18.8514C39.5118 18.6158 38.8675 18.2081 38.3127 17.6282C37.7758 17.0302 37.5074 16.2057 37.5074 15.1546C37.5074 13.7774 38.0711 12.6811 39.1986 11.8656C40.3439 11.032 41.883 10.6152 43.8158 10.6152C44.8001 10.6152 45.7844 10.733 46.7687 10.9686C47.753 11.1861 48.5583 11.4851 49.1847 11.8656L47.8961 14.4479C46.6792 13.7231 45.3101 13.3606 43.789 13.3606C42.8047 13.3606 42.053 13.5147 41.534 13.8227C41.0329 14.1127 40.7824 14.5023 40.7824 14.9916C40.7824 15.5352 41.0508 15.9248 41.5877 16.1604C42.1425 16.3778 42.9926 16.5862 44.1379 16.7856C45.2833 16.9668 46.2228 17.1752 46.9566 17.4108C47.6903 17.6463 48.3167 18.045 48.8357 18.6068C49.3726 19.1685 49.641 19.9659 49.641 20.9988C49.641 22.3579 49.0594 23.4452 47.8961 24.2607C46.7329 25.0761 45.1491 25.4839 43.1447 25.4839Z" fill="white"/>
<path d="M60.4767 10.6152C61.8726 10.6152 63.1164 10.9233 64.208 11.5394C65.3176 12.1556 66.1856 13.0254 66.8119 14.1489C67.4383 15.2724 67.7515 16.5681 67.7515 18.036C67.7515 19.5038 67.4383 20.8085 66.8119 21.9502C66.1856 23.0737 65.3176 23.9435 64.208 24.5597C63.1164 25.1758 61.8726 25.4839 60.4767 25.4839C58.5439 25.4839 57.0138 24.8315 55.8863 23.5267V30.5669H52.5308V10.7783H55.7252V12.6811C56.28 11.9925 56.9601 11.476 57.7654 11.1317C58.5886 10.7874 59.4924 10.6152 60.4767 10.6152ZM60.1009 22.5754C61.3357 22.5754 62.3468 22.1586 63.1343 21.325C63.9396 20.4914 64.3423 19.3951 64.3423 18.036C64.3423 16.6768 63.9396 15.5805 63.1343 14.7469C62.3468 13.9133 61.3357 13.4965 60.1009 13.4965C59.2955 13.4965 58.5707 13.6868 57.9265 14.0674C57.2822 14.4298 56.7722 14.9553 56.3964 15.6439C56.0205 16.3325 55.8326 17.1299 55.8326 18.036C55.8326 18.942 56.0205 19.7394 56.3964 20.428C56.7722 21.1166 57.2822 21.6512 57.9265 22.0317C58.5707 22.3942 59.2955 22.5754 60.1009 22.5754Z" fill="white"/>
<path d="M84.6754 10.7783V25.2936H81.4809V23.418C80.9261 24.1066 80.2371 24.6231 79.4139 24.9674C78.6086 25.3117 77.7138 25.4839 76.7295 25.4839C75.3336 25.4839 74.0808 25.1758 72.9713 24.5597C71.8796 23.9435 71.0206 23.0737 70.3942 21.9502C69.7857 20.8267 69.4815 19.5219 69.4815 18.036C69.4815 16.55 69.7857 15.2543 70.3942 14.1489C71.0206 13.0254 71.8796 12.1556 72.9713 11.5394C74.0808 10.9233 75.3336 10.6152 76.7295 10.6152C77.6601 10.6152 78.5101 10.7783 79.2797 11.1045C80.0671 11.4307 80.7472 11.9109 81.3198 12.5452V10.7783H84.6754ZM77.1053 22.5754C78.3401 22.5754 79.3602 22.1586 80.1655 21.325C80.9709 20.4914 81.3735 19.3951 81.3735 18.036C81.3735 16.6768 80.9709 15.5805 80.1655 14.7469C79.3602 13.9133 78.3401 13.4965 77.1053 13.4965C75.8705 13.4965 74.8504 13.9133 74.045 14.7469C73.2576 15.5805 72.8639 16.6768 72.8639 18.036C72.8639 19.3951 73.2576 20.4914 74.045 21.325C74.8504 22.1586 75.8705 22.5754 77.1053 22.5754Z" fill="white"/>
<path d="M95.3714 25.4839C93.886 25.4839 92.5527 25.1667 91.3716 24.5325C90.1904 23.8982 89.2688 23.0193 88.6066 21.8958C87.9445 20.7542 87.6134 19.4675 87.6134 18.036C87.6134 16.6044 87.9445 15.3268 88.6066 14.2033C89.2688 13.0797 90.1815 12.2009 91.3447 11.5666C92.5259 10.9324 93.8681 10.6152 95.3714 10.6152C96.7852 10.6152 98.02 10.9052 99.0759 11.4851C100.15 12.0649 100.955 12.8985 101.492 13.9858L98.9148 15.508C98.5032 14.8375 97.9842 14.3392 97.3579 14.013C96.7494 13.6687 96.0783 13.4965 95.3446 13.4965C94.0918 13.4965 93.0538 13.9133 92.2306 14.7469C91.4074 15.5624 90.9958 16.6587 90.9958 18.036C90.9958 19.4132 91.3984 20.5186 92.2038 21.3522C93.027 22.1676 94.0739 22.5754 95.3446 22.5754C96.0783 22.5754 96.7494 22.4123 97.3579 22.0861C97.9842 21.7418 98.5032 21.2344 98.9148 20.5639L101.492 22.0861C100.937 23.1734 100.123 24.016 99.0491 24.614C97.9932 25.1939 96.7673 25.4839 95.3714 25.4839Z" fill="white"/>
<path d="M118 10.7783V23.0918C118 28.2021 115.521 30.7572 110.564 30.7572C109.258 30.7572 108.005 30.576 106.806 30.2135C105.625 29.8692 104.649 29.3618 103.88 28.6913L105.383 26.1362C105.992 26.6618 106.734 27.0785 107.611 27.3866C108.488 27.6947 109.41 27.8487 110.376 27.8487C111.844 27.8487 112.917 27.4863 113.597 26.7614C114.295 26.0547 114.644 24.9583 114.644 23.4724V22.7928C114.107 23.3908 113.454 23.8529 112.685 24.1791C111.915 24.4872 111.083 24.6412 110.188 24.6412C108.273 24.6412 106.761 24.1066 105.652 23.0375C104.56 21.9683 104.014 20.3646 104.014 18.2262V10.7783H107.37V17.7913C107.37 19.0779 107.656 20.0474 108.229 20.6998C108.819 21.3341 109.651 21.6512 110.725 21.6512C111.924 21.6512 112.873 21.2797 113.571 20.5367C114.286 19.7937 114.644 18.7155 114.644 17.302V10.7783H118Z" fill="white"/>
<defs>
<linearGradient id="paint0_linear_6_637" x1="6.83693" y1="16.2479" x2="30.6687" y2="14.3003" gradientUnits="userSpaceOnUse">
<stop stop-color="#2A18F0"/>
<stop offset="0.631373" stop-color="#861ACC"/>
<stop offset="1" stop-color="#E31DA8"/>
</linearGradient>
<linearGradient id="paint1_linear_6_637" x1="1.756" y1="9.96294" x2="18.7464" y2="36.3056" gradientUnits="userSpaceOnUse">
<stop stop-color="#13D9F7"/>
<stop offset="1" stop-color="#452AF4"/>
</linearGradient>
</defs>
</svg>
