<?xml version="1.0" standalone="no"?>
<!DOCTYPE svg PUBLIC "-//W3C//DTD SVG 20010904//EN"
 "http://www.w3.org/TR/2001/REC-SVG-20010904/DTD/svg10.dtd">
<svg version="1.0" xmlns="http://www.w3.org/2000/svg"
 width="700.000000pt" height="700.000000pt" viewBox="0 0 700.000000 700.000000"
 preserveAspectRatio="xMidYMid meet">
<metadata>
Created by potrace 1.14, written by Peter Selinger 2001-2017
</metadata>
<g transform="translate(0.000000,700.000000) scale(0.100000,-0.100000)"
fill="#000000" stroke="none">
<path d="M34 6856 l-34 -34 1 -1949 c1 -2004 1 -2021 39 -2258 83 -511 313
-1018 654 -1440 98 -122 312 -338 421 -425 44 -35 82 -67 85 -70 24 -27 264
-185 387 -254 339 -191 787 -335 1158 -372 39 -3 84 -8 100 -10 45 -5 443 -5
495 1 25 2 72 7 105 10 151 15 359 58 540 111 883 261 1636 948 1977 1804 81
203 131 378 172 600 39 215 50 347 50 629 l1 195 -35 1 c-415 21 -777 250
-962 610 -45 89 -93 223 -104 294 -3 20 -8 40 -12 45 -9 15 -11 268 -2 321 5
28 11 66 14 85 21 121 92 286 178 413 53 79 205 232 284 284 114 78 283 154
374 169 14 3 31 7 38 9 20 7 148 22 202 24 l26 1 -1 583 c-1 443 -4 587 -13
604 -31 55 17 53 -1132 53 -1156 0 -1115 2 -1138 -56 -9 -22 -13 -511 -15
-1934 l-2 -1905 -23 -74 c-78 -254 -246 -439 -484 -534 -37 -15 -80 -29 -95
-32 -15 -2 -39 -7 -53 -10 -46 -11 -187 -12 -246 -4 -346 52 -618 316 -675
656 -8 49 -11 595 -11 1938 -1 2014 2 1903 -52 1939 -23 15 -119 16 -1102 16
l-1076 0 -34 -34z"/>
<path d="M6074 5328 c-259 -40 -493 -215 -604 -453 -55 -118 -74 -200 -74
-335 0 -137 6 -176 46 -286 112 -311 414 -524 744 -526 120 0 192 13 299 54
229 89 403 273 475 503 31 100 31 99 35 226 6 190 -39 337 -150 494 -114 161
-313 286 -510 320 -59 11 -203 13 -261 3z"/>
</g>
</svg>
