<svg width="4100" height="129" viewBox="0 0 4100 129" fill="none" xmlns="http://www.w3.org/2000/svg">
<path d="M0.75 68.75H-1.25V70.75H0.75V68.75ZM96.25 68.75V70.75H98.25V68.75H96.25ZM96.25 50.25H98.25V48.25H96.25V50.25ZM0.75 50.25V48.25H-1.25V50.25H0.75ZM0.75 70.75H96.25V66.75H0.75V70.75ZM98.25 68.75V50.25H94.25V68.75H98.25ZM96.25 48.25H0.75V52.25H96.25V48.25ZM-1.25 50.25V68.75H2.75V50.25H-1.25ZM151.25 38.5L149.877 37.046L148.396 38.4445L149.821 39.8996L151.25 38.5ZM163.25 50.75L161.821 52.1496L163.235 53.5931L164.664 52.1642L163.25 50.75ZM182 56.75L181.766 54.7637L181.759 54.7645L181.752 54.7654L182 56.75ZM200.25 91.25L202.214 90.8699L201.317 86.238L198.612 90.1031L200.25 91.25ZM223.25 102L223.579 103.973L225.25 103.694V102H223.25ZM223.25 84.75H225.25V82.75H223.25V84.75ZM184 69.75L184.318 71.7245L184.338 71.7213L184.358 71.7177L184 69.75ZM196.75 66.25H198.75V62.7679L195.742 64.5224L196.75 66.25ZM220.25 82.75C219.227 82.75 218.742 82.4763 218.508 82.242C218.274 82.0078 218 81.5225 218 80.5H214C214 82.2275 214.476 83.8672 215.68 85.0705C216.883 86.2737 218.523 86.75 220.25 86.75V82.75ZM218 80.5V51H214V80.5H218ZM218 51C218 42.5968 214.908 35.6873 209.078 30.9204C203.3 26.1959 195.049 23.75 185 23.75V27.75C194.451 27.75 201.7 30.0541 206.547 34.0171C211.342 37.9377 214 43.6532 214 51H218ZM185 23.75C171.04 23.75 159.283 28.1622 149.877 37.046L152.623 39.954C161.217 31.8378 171.96 27.75 185 27.75V23.75ZM149.821 39.8996L161.821 52.1496L164.679 49.3504L152.679 37.1004L149.821 39.8996ZM164.664 52.1642C170.062 46.7663 176.562 44 183.75 44V40C175.438 40 167.938 43.2337 161.836 49.3358L164.664 52.1642ZM183.75 44C187.782 44 190.755 44.7765 192.648 45.9276C194.477 47.0397 195.25 48.446 195.25 50H199.25C199.25 46.804 197.523 44.2103 194.727 42.5099C191.995 40.8485 188.218 40 183.75 40V44ZM195.25 50C195.25 50.9146 194.686 51.8782 192.129 52.8079C189.631 53.7164 186.045 54.2603 181.766 54.7637L182.234 58.7363C186.455 58.2397 190.494 57.6586 193.496 56.5671C196.439 55.4968 199.25 53.5854 199.25 50H195.25ZM181.752 54.7654C174.766 55.6387 166.341 56.9797 159.649 60.7233C156.267 62.615 153.269 65.1502 151.123 68.5948C148.971 72.0484 147.75 76.2994 147.75 81.5H151.75C151.75 76.9506 152.81 73.4516 154.518 70.7098C156.231 67.9591 158.671 65.8537 161.601 64.2142C167.534 60.8953 175.234 59.6113 182.248 58.7346L181.752 54.7654ZM147.75 81.5C147.75 88.53 150.402 94.5254 155.139 98.7436C159.855 102.944 166.485 105.25 174.25 105.25V101.25C167.265 101.25 161.645 99.1814 157.799 95.7564C153.973 92.3496 151.75 87.47 151.75 81.5H147.75ZM174.25 105.25C185.753 105.25 196.186 100.543 201.888 92.3969L198.612 90.1031C193.814 96.9565 184.747 101.25 174.25 101.25V105.25ZM198.286 91.6301C199.108 95.8742 200.947 99.1985 204.06 101.411C207.123 103.588 211.155 104.5 216 104.5V100.5C211.595 100.5 208.502 99.6616 206.378 98.1511C204.303 96.6765 202.892 94.3758 202.214 90.8699L198.286 91.6301ZM216 104.5C219.856 104.5 221.966 104.242 223.579 103.973L222.921 100.027C221.534 100.258 219.644 100.5 216 100.5V104.5ZM225.25 102V84.75H221.25V102H225.25ZM223.25 82.75H220.25V86.75H223.25V82.75ZM178.75 85.5C175.917 85.5 173.991 84.818 172.809 83.8362C171.678 82.897 171 81.4986 171 79.5H167C167 82.5014 168.072 85.103 170.254 86.9138C172.384 88.682 175.333 89.5 178.75 89.5V85.5ZM171 79.5C171 78.0408 171.358 77.0126 171.898 76.2325C172.452 75.4326 173.296 74.7534 174.48 74.1679C176.936 72.9537 180.356 72.3636 184.318 71.7245L183.682 67.7755C179.894 68.3864 175.814 69.0463 172.707 70.5821C171.111 71.3716 169.657 72.4424 168.61 73.955C167.548 75.4874 167 77.3342 167 79.5H171ZM184.358 71.7177C189.707 70.7451 194.381 69.9472 197.758 67.9776L195.742 64.5224C193.119 66.0528 189.293 66.7549 183.642 67.7823L184.358 71.7177ZM194.75 66.25V72.75H198.75V66.25H194.75ZM194.75 72.75C194.75 79.5371 188.042 85.5 178.75 85.5V89.5C189.458 89.5 198.75 82.4629 198.75 72.75H194.75ZM306.25 55.75L306.714 53.8046L306.703 53.802L306.25 55.75ZM325 49.5L323.81 51.1071L325.453 52.3243L326.633 50.6545L325 49.5ZM335.25 35L336.883 36.1545L338.085 34.4548L336.338 33.3221L335.25 35ZM301.75 72.75L301.282 74.6946L301.292 74.6968L301.75 72.75ZM280.25 77.75L281.599 76.273L279.939 74.7576L278.626 76.5821L280.25 77.75ZM270 92L268.376 90.8321L267.315 92.308L268.683 93.5052L270 92ZM304 105.25C314.606 105.25 323.201 103.084 329.197 98.7812C335.284 94.4139 338.5 87.9791 338.5 80H334.5C334.5 86.7709 331.841 91.9611 326.865 95.5313C321.799 99.1661 314.144 101.25 304 101.25V105.25ZM338.5 80C338.5 73.2038 336.207 67.8538 330.873 63.5935C325.698 59.4604 317.77 56.4429 306.714 53.8046L305.786 57.6954C316.73 60.3071 323.927 63.1646 328.377 66.719C332.668 70.1462 334.5 74.2962 334.5 80H338.5ZM306.703 53.802C301.309 52.5476 298.14 51.5367 296.33 50.5103C295.459 50.0163 295.036 49.5895 294.817 49.2506C294.615 48.939 294.5 48.5686 294.5 48H290.5C290.5 49.1814 290.76 50.3422 291.457 51.4213C292.136 52.473 293.134 53.2962 294.357 53.9897C296.735 55.3383 300.441 56.4524 305.797 57.698L306.703 53.802ZM294.5 48C294.5 47.0605 294.96 46.2165 296.356 45.4956C297.831 44.733 300.158 44.25 303.25 44.25V40.25C299.842 40.25 296.794 40.767 294.519 41.9419C292.165 43.1585 290.5 45.1895 290.5 48H294.5ZM303.25 44.25C311.306 44.25 317.391 46.3528 323.81 51.1071L326.19 47.8929C319.109 42.6472 312.194 40.25 303.25 40.25V44.25ZM326.633 50.6545L336.883 36.1545L333.617 33.8455L323.367 48.3455L326.633 50.6545ZM336.338 33.3221C326.801 27.1354 316.677 23.75 305 23.75V27.75C315.823 27.75 325.199 30.8646 334.162 36.6779L336.338 33.3221ZM305 23.75C295.091 23.75 286.76 26.0631 280.851 30.3857C274.882 34.7514 271.5 41.0938 271.5 48.75H275.5C275.5 42.4062 278.243 37.2486 283.212 33.6143C288.24 29.9369 295.659 27.75 305 27.75V23.75ZM271.5 48.75C271.5 55.3133 273.865 60.6913 278.923 64.9924C283.873 69.2012 291.298 72.2932 301.282 74.6945L302.218 70.8055C292.452 68.4568 285.752 65.5488 281.514 61.9451C277.385 58.4337 275.5 54.1867 275.5 48.75H271.5ZM301.292 74.6968C307.691 76.2024 311.32 77.3416 313.339 78.4203C314.32 78.9446 314.761 79.3737 314.97 79.6802C315.152 79.9452 315.25 80.2461 315.25 80.75H319.25C319.25 79.6289 319.004 78.4923 318.272 77.4214C317.567 76.392 316.524 75.5866 315.224 74.8922C312.68 73.5334 308.559 72.2976 302.208 70.8032L301.292 74.6968ZM315.25 80.75C315.25 81.5501 314.743 82.4648 312.771 83.2751C310.829 84.0732 307.997 84.5 304.75 84.5V88.5C308.253 88.5 311.671 88.0518 314.291 86.9749C316.882 85.9102 319.25 83.9499 319.25 80.75H315.25ZM304.75 84.5C294.957 84.5 286.95 81.159 281.599 76.273L278.901 79.227C285.05 84.841 294.043 88.5 304.75 88.5V84.5ZM278.626 76.5821L268.376 90.8321L271.624 93.1679L281.874 78.9179L278.626 76.5821ZM268.683 93.5052C277.124 100.891 290.128 105.25 304 105.25V101.25C290.872 101.25 278.876 97.1087 271.317 90.4948L268.683 93.5052ZM350.75 17.5H348.75V19.5H350.75V17.5ZM372.25 17.5V19.5H374.25V17.5H372.25ZM372.25 0.5H374.25V-1.5H372.25V0.5ZM350.75 0.5V-1.5H348.75V0.5H350.75ZM351.5 102H349.5V104H351.5V102ZM371.5 102V104H373.5V102H371.5ZM371.5 27H373.5V25H371.5V27ZM351.5 27V25H349.5V27H351.5ZM350.75 19.5H372.25V15.5H350.75V19.5ZM374.25 17.5V0.5H370.25V17.5H374.25ZM372.25 -1.5H350.75V2.5H372.25V-1.5ZM348.75 0.5V17.5H352.75V0.5H348.75ZM351.5 104H371.5V100H351.5V104ZM373.5 102V27H369.5V102H373.5ZM371.5 25H351.5V29H371.5V25ZM349.5 27V102H353.5V27H349.5ZM412 37.5L410.005 37.6425L410.371 42.7719L413.567 38.7428L412 37.5ZM411.25 27L413.245 26.8575L413.112 25H411.25V27ZM393.25 27V25H391.25V27H393.25ZM393.25 102H391.25V104H393.25V102ZM413.25 102V104H415.25V102H413.25ZM444 102H442V104H444V102ZM464 102V104H466V102H464ZM437 23.75C426.152 23.75 416.57 28.519 410.433 36.2572L413.567 38.7428C418.93 31.981 427.348 27.75 437 27.75V23.75ZM413.995 37.3575L413.245 26.8575L409.255 27.1425L410.005 37.6425L413.995 37.3575ZM411.25 25H393.25V29H411.25V25ZM391.25 27V102H395.25V27H391.25ZM393.25 104H413.25V100H393.25V104ZM415.25 102V59.25H411.25V102H415.25ZM415.25 59.25C415.25 50.4307 422.027 44.25 430.5 44.25V40.25C419.973 40.25 411.25 48.0693 411.25 59.25H415.25ZM430.5 44.25C434.241 44.25 437.008 45.5463 438.886 47.8556C440.812 50.2238 442 53.9036 442 59H446C446 53.3464 444.688 48.6512 441.989 45.3319C439.242 41.9537 435.259 40.25 430.5 40.25V44.25ZM442 59V102H446V59H442ZM444 104H464V100H444V104ZM466 102V54.5H462V102H466ZM466 54.5C466 45.4469 463.108 37.7417 457.954 32.2833C452.793 26.8159 445.499 23.75 437 23.75V27.75C444.501 27.75 450.707 30.4341 455.046 35.0292C459.392 39.6333 462 46.3031 462 54.5H466ZM535.25 27V25H533.402L533.256 26.8426L535.25 27ZM534.5 36.5L532.978 37.7969L536.113 41.478L536.494 36.6574L534.5 36.5ZM534.25 87.25H536.25V81.818L532.728 85.9531L534.25 87.25ZM491.25 104.25L492.499 102.688L490.753 101.291L489.559 103.182L491.25 104.25ZM482.25 118.5L480.559 117.432L479.655 118.864L480.918 119.992L482.25 118.5ZM553.25 27H555.25V25H553.25V27ZM533.256 26.8426L532.506 36.3426L536.494 36.6574L537.244 27.1574L533.256 26.8426ZM536.022 35.2031C529.88 27.9924 521.067 23.75 510.25 23.75V27.75C519.933 27.75 527.62 31.5076 532.978 37.7969L536.022 35.2031ZM510.25 23.75C500.104 23.75 491.485 27.5201 485.42 34.2554C479.372 40.9722 476 50.481 476 61.75H480C480 51.269 483.128 42.7778 488.392 36.9321C493.64 31.1049 501.146 27.75 510.25 27.75V23.75ZM476 61.75C476 73.0083 479.303 82.5765 485.316 89.3581C491.35 96.1628 499.973 100 510.25 100V96C501.027 96 493.525 92.5872 488.309 86.7044C483.072 80.7985 480 72.2417 480 61.75H476ZM510.25 100C520.825 100 529.636 95.7511 535.772 88.5469L532.728 85.9531C527.364 92.2489 519.675 96 510.25 96V100ZM532.25 87.25V92.5H536.25V87.25H532.25ZM532.25 92.5C532.25 97.9223 530.838 102.155 528.01 105.037C525.19 107.91 520.656 109.75 513.75 109.75V113.75C521.344 113.75 527.06 111.715 530.865 107.838C534.662 103.97 536.25 98.5777 536.25 92.5H532.25ZM513.75 109.75C504.924 109.75 498.372 107.386 492.499 102.688L490.001 105.812C496.628 111.114 504.076 113.75 513.75 113.75V109.75ZM489.559 103.182L480.559 117.432L483.941 119.568L492.941 105.318L489.559 103.182ZM480.918 119.992C488.406 126.678 499.451 130.25 514.25 130.25V126.25C500.049 126.25 490.094 122.822 483.582 117.008L480.918 119.992ZM514.25 130.25C527.125 130.25 537.418 126.575 544.505 119.823C551.602 113.061 555.25 103.433 555.25 92H551.25C551.25 102.567 547.898 111.064 541.745 116.927C535.582 122.8 526.375 126.25 514.25 126.25V130.25ZM555.25 92V27H551.25V92H555.25ZM553.25 25H535.25V29H553.25V25ZM516.25 80.75C511.247 80.75 507.32 79.0041 504.623 75.9558C501.901 72.88 500.25 68.2715 500.25 62.25H496.25C496.25 68.9785 498.099 74.62 501.627 78.6067C505.18 82.6209 510.253 84.75 516.25 84.75V80.75ZM500.25 62.25C500.25 56.4973 501.89 52.0147 504.611 48.9949C507.311 45.9977 511.245 44.25 516.25 44.25V40.25C510.255 40.25 505.189 42.3773 501.639 46.3176C498.11 50.2353 496.25 55.7527 496.25 62.25H500.25ZM516.25 44.25C521.407 44.25 525.257 45.9521 527.844 48.8853C530.461 51.853 532 56.3271 532 62.25H536C536 55.6729 534.289 50.147 530.844 46.2397C527.368 42.2979 522.343 40.25 516.25 40.25V44.25ZM532 62.25C532 68.3072 530.456 72.9153 527.826 75.9786C525.232 79.0005 521.386 80.75 516.25 80.75V84.75C522.364 84.75 527.393 82.6245 530.861 78.5839C534.294 74.5847 536 68.9428 536 62.25H532ZM573.75 102H571.75V104H573.75V102ZM593.75 102V104H595.75V102H593.75ZM593.75 2H595.75V0H593.75V2ZM573.75 2V0H571.75V2H573.75ZM573.75 104H593.75V100H573.75V104ZM595.75 102V2H591.75V102H595.75ZM593.75 0H573.75V4H593.75V0ZM571.75 2V102H575.75V2H571.75ZM628.75 71V69H626.31L626.789 71.3922L628.75 71ZM683.5 71V73H685.117L685.456 71.4191L683.5 71ZM681.25 90.25L682.709 91.6179L684.047 90.1905L682.65 88.8213L681.25 90.25ZM669 78.25L670.4 76.8213L668.913 75.3651L667.517 76.9082L669 78.25ZM664.25 56.5V58.5H666.715L666.207 56.088L664.25 56.5ZM629 56.5L627.057 56.0273L626.455 58.5H629V56.5ZM628.75 73H683.5V69H628.75V73ZM685.456 71.4191C686.242 67.7515 686.25 66.1067 686.25 64.5H682.25C682.25 65.8933 682.258 67.2485 681.544 70.5809L685.456 71.4191ZM686.25 64.5C686.25 52.3378 682.492 42.1196 675.6 34.9287C668.7 27.7287 658.837 23.75 647 23.75V27.75C657.913 27.75 666.675 31.3963 672.712 37.6963C678.758 44.0054 682.25 53.1622 682.25 64.5H686.25ZM647 23.75C635.028 23.75 624.988 27.8596 617.941 35.1057C610.901 42.3456 607 52.5599 607 64.5H611C611 53.4401 614.599 44.2794 620.809 37.8943C627.012 31.5154 635.972 27.75 647 27.75V23.75ZM607 64.5C607 76.014 610.433 86.2375 617.425 93.5964C624.435 100.973 634.812 105.25 648.25 105.25V101.25C635.688 101.25 626.44 97.2766 620.325 90.8411C614.192 84.3875 611 75.236 611 64.5H607ZM648.25 105.25C663.242 105.25 674.791 100.064 682.709 91.6179L679.791 88.8821C672.709 96.4364 662.258 101.25 648.25 101.25V105.25ZM682.65 88.8213L670.4 76.8213L667.6 79.6787L679.85 91.6787L682.65 88.8213ZM667.517 76.9082C663.167 81.7165 656.966 84.75 648.5 84.75V88.75C658.034 88.75 665.333 85.2835 670.483 79.5918L667.517 76.9082ZM648.5 84.75C643.485 84.75 639.517 83.4136 636.597 81.0661C633.68 78.7216 631.636 75.2312 630.711 70.6078L626.789 71.3922C627.864 76.7688 630.32 81.1534 634.091 84.1839C637.858 87.2114 642.765 88.75 648.5 88.75V84.75ZM647 43.75C651.232 43.75 654.556 44.9427 657.039 47.0787C659.536 49.2259 661.36 52.4802 662.293 56.912L666.207 56.088C665.14 51.0198 662.964 46.8991 659.648 44.0463C656.319 41.1823 652.018 39.75 647 39.75V43.75ZM664.25 54.5H629V58.5H664.25V54.5ZM630.943 56.9727C631.985 52.6905 633.975 49.4081 636.649 47.1978C639.314 44.9949 642.787 43.75 647 43.75V39.75C641.963 39.75 637.561 41.2551 634.101 44.1147C630.65 46.9669 628.265 51.0595 627.057 56.0273L630.943 56.9727ZM789.25 2V0H787.25V2H789.25ZM789.25 35.75L787.778 37.1041L791.25 40.8779V35.75H789.25ZM790.25 91.5L792.241 91.3104L791.759 86.2451L788.663 90.2831L790.25 91.5ZM791.25 102L789.259 102.19L789.431 104H791.25V102ZM809.25 102V104H811.25V102H809.25ZM809.25 2H811.25V0H809.25V2ZM787.25 2V35.75H791.25V2H787.25ZM790.722 34.3959C784.601 27.7428 776.321 23.75 766 23.75V27.75C775.179 27.75 782.399 31.2572 787.778 37.1041L790.722 34.3959ZM766 23.75C755.912 23.75 747.345 27.8847 741.336 35.1294C735.352 42.3435 732 52.5148 732 64.5H736C736 53.2352 739.148 44.0315 744.414 37.6831C749.655 31.3653 757.088 27.75 766 27.75V23.75ZM732 64.5C732 76.5872 735.215 86.7642 741.144 93.9594C747.106 101.194 755.684 105.25 766 105.25V101.25C756.816 101.25 749.394 97.6812 744.231 91.4156C739.035 85.1108 736 75.9128 736 64.5H732ZM766 105.25C776.869 105.25 785.707 100.713 791.837 92.7169L788.663 90.2831C783.293 97.2874 775.631 101.25 766 101.25V105.25ZM788.259 91.6896L789.259 102.19L793.241 101.81L792.241 91.3104L788.259 91.6896ZM791.25 104H809.25V100H791.25V104ZM811.25 102V2H807.25V102H811.25ZM809.25 0H789.25V4H809.25V0ZM772.25 84.75C767.176 84.75 763.271 82.8585 760.589 79.5272C757.865 76.1429 756.25 71.0732 756.25 64.5H752.25C752.25 71.6768 754.01 77.7321 757.473 82.0353C760.979 86.3915 766.074 88.75 772.25 88.75V84.75ZM756.25 64.5C756.25 57.9268 757.865 52.8571 760.589 49.4728C763.271 46.1415 767.176 44.25 772.25 44.25V40.25C766.074 40.25 760.979 42.6085 757.473 46.9647C754.01 51.2679 752.25 57.3232 752.25 64.5H756.25ZM772.25 44.25C777.32 44.25 781.156 46.1377 783.773 49.4572C786.44 52.838 788 57.9105 788 64.5H792C792 57.3395 790.31 51.287 786.914 46.9803C783.469 42.6123 778.43 40.25 772.25 40.25V44.25ZM788 64.5C788 71.0895 786.44 76.162 783.773 79.5428C781.156 82.8623 777.32 84.75 772.25 84.75V88.75C778.43 88.75 783.469 86.3877 786.914 82.0197C790.31 77.713 792 71.6605 792 64.5H788ZM830.25 17.5H828.25V19.5H830.25V17.5ZM851.75 17.5V19.5H853.75V17.5H851.75ZM851.75 0.5H853.75V-1.5H851.75V0.5ZM830.25 0.5V-1.5H828.25V0.5H830.25ZM831 102H829V104H831V102ZM851 102V104H853V102H851ZM851 27H853V25H851V27ZM831 27V25H829V27H831ZM830.25 19.5H851.75V15.5H830.25V19.5ZM853.75 17.5V0.5H849.75V17.5H853.75ZM851.75 -1.5H830.25V2.5H851.75V-1.5ZM828.25 0.5V17.5H832.25V0.5H828.25ZM831 104H851V100H831V104ZM853 102V27H849V102H853ZM851 25H831V29H851V25ZM829 27V102H833V27H829ZM924.75 27V25H922.902L922.756 26.8426L924.75 27ZM924 36.5L922.478 37.7969L925.613 41.478L925.994 36.6574L924 36.5ZM923.75 87.25H925.75V81.818L922.228 85.9531L923.75 87.25ZM880.75 104.25L881.999 102.688L880.253 101.291L879.059 103.182L880.75 104.25ZM871.75 118.5L870.059 117.432L869.155 118.864L870.418 119.992L871.75 118.5ZM942.75 27H944.75V25H942.75V27ZM922.756 26.8426L922.006 36.3426L925.994 36.6574L926.744 27.1574L922.756 26.8426ZM925.522 35.2031C919.38 27.9924 910.567 23.75 899.75 23.75V27.75C909.433 27.75 917.12 31.5076 922.478 37.7969L925.522 35.2031ZM899.75 23.75C889.604 23.75 880.985 27.5201 874.92 34.2554C868.872 40.9722 865.5 50.481 865.5 61.75H869.5C869.5 51.269 872.628 42.7778 877.892 36.9321C883.14 31.1049 890.646 27.75 899.75 27.75V23.75ZM865.5 61.75C865.5 73.0083 868.803 82.5765 874.816 89.3581C880.85 96.1628 889.473 100 899.75 100V96C890.527 96 883.025 92.5872 877.809 86.7044C872.572 80.7985 869.5 72.2417 869.5 61.75H865.5ZM899.75 100C910.325 100 919.136 95.7511 925.272 88.5469L922.228 85.9531C916.864 92.2489 909.175 96 899.75 96V100ZM921.75 87.25V92.5H925.75V87.25H921.75ZM921.75 92.5C921.75 97.9223 920.338 102.155 917.51 105.037C914.69 107.91 910.156 109.75 903.25 109.75V113.75C910.844 113.75 916.56 111.715 920.365 107.838C924.162 103.97 925.75 98.5777 925.75 92.5H921.75ZM903.25 109.75C894.424 109.75 887.872 107.386 881.999 102.688L879.501 105.812C886.128 111.114 893.576 113.75 903.25 113.75V109.75ZM879.059 103.182L870.059 117.432L873.441 119.568L882.441 105.318L879.059 103.182ZM870.418 119.992C877.906 126.678 888.951 130.25 903.75 130.25V126.25C889.549 126.25 879.594 122.822 873.082 117.008L870.418 119.992ZM903.75 130.25C916.625 130.25 926.918 126.575 934.005 119.823C941.102 113.061 944.75 103.433 944.75 92H940.75C940.75 102.567 937.398 111.064 931.245 116.927C925.082 122.8 915.875 126.25 903.75 126.25V130.25ZM944.75 92V27H940.75V92H944.75ZM942.75 25H924.75V29H942.75V25ZM905.75 80.75C900.747 80.75 896.82 79.0041 894.123 75.9558C891.401 72.88 889.75 68.2715 889.75 62.25H885.75C885.75 68.9785 887.599 74.62 891.127 78.6067C894.68 82.6209 899.753 84.75 905.75 84.75V80.75ZM889.75 62.25C889.75 56.4973 891.39 52.0147 894.111 48.9949C896.811 45.9977 900.745 44.25 905.75 44.25V40.25C899.755 40.25 894.689 42.3773 891.139 46.3176C887.61 50.2353 885.75 55.7527 885.75 62.25H889.75ZM905.75 44.25C910.907 44.25 914.757 45.9521 917.344 48.8853C919.961 51.853 921.5 56.3271 921.5 62.25H925.5C925.5 55.6729 923.789 50.147 920.344 46.2397C916.868 42.2979 911.843 40.25 905.75 40.25V44.25ZM921.5 62.25C921.5 68.3072 919.956 72.9153 917.326 75.9786C914.732 79.0005 910.886 80.75 905.75 80.75V84.75C911.864 84.75 916.893 82.6245 920.361 78.5839C923.794 74.5847 925.5 68.9428 925.5 62.25H921.5ZM963.75 17.5H961.75V19.5H963.75V17.5ZM985.25 17.5V19.5H987.25V17.5H985.25ZM985.25 0.5H987.25V-1.5H985.25V0.5ZM963.75 0.5V-1.5H961.75V0.5H963.75ZM964.5 102H962.5V104H964.5V102ZM984.5 102V104H986.5V102H984.5ZM984.5 27H986.5V25H984.5V27ZM964.5 27V25H962.5V27H964.5ZM963.75 19.5H985.25V15.5H963.75V19.5ZM987.25 17.5V0.5H983.25V17.5H987.25ZM985.25 -1.5H963.75V2.5H985.25V-1.5ZM961.75 0.5V17.5H965.75V0.5H961.75ZM964.5 104H984.5V100H964.5V104ZM986.5 102V27H982.5V102H986.5ZM984.5 25H964.5V29H984.5V25ZM962.5 27V102H966.5V27H962.5ZM1055 43.5V45.5H1057V43.5H1055ZM1055 27H1057V25H1055V27ZM1033.5 27H1031.5V29H1033.5V27ZM1033.5 7H1035.5V5H1033.5V7ZM1015.5 7V5H1013.69L1013.51 6.80099L1015.5 7ZM1013.5 27V29H1015.31L1015.49 27.199L1013.5 27ZM998.5 27V25H996.5V27H998.5ZM998.5 43.5H996.5V45.5H998.5V43.5ZM1013.5 43.5H1015.5V41.5H1013.5V43.5ZM1055 101.5L1055.53 103.43L1057 103.028V101.5H1055ZM1055 83.75H1057V81.1884L1054.51 81.8097L1055 83.75ZM1033.5 43.5V41.5H1031.5V43.5H1033.5ZM1057 43.5V27H1053V43.5H1057ZM1055 25H1033.5V29H1055V25ZM1035.5 27V7H1031.5V27H1035.5ZM1033.5 5H1015.5V9H1033.5V5ZM1013.51 6.80099L1011.51 26.801L1015.49 27.199L1017.49 7.19901L1013.51 6.80099ZM1013.5 25H998.5V29H1013.5V25ZM996.5 27V43.5H1000.5V27H996.5ZM998.5 45.5H1013.5V41.5H998.5V45.5ZM1011.5 43.5V81H1015.5V43.5H1011.5ZM1011.5 81C1011.5 88.9258 1013.96 95.1606 1018.78 99.3795C1023.55 103.559 1030.34 105.5 1038.5 105.5V101.5C1030.91 101.5 1025.2 99.6907 1021.41 96.3705C1017.67 93.0894 1015.5 88.0742 1015.5 81H1011.5ZM1038.5 105.5C1044.12 105.5 1049.81 104.989 1055.53 103.43L1054.47 99.5705C1049.19 101.011 1043.88 101.5 1038.5 101.5V105.5ZM1057 101.5V83.75H1053V101.5H1057ZM1054.51 81.8097C1050.73 82.7557 1047.66 83 1043 83V87C1047.84 87 1051.27 86.7443 1055.49 85.6903L1054.51 81.8097ZM1043 83C1040.18 83 1038.38 82.4598 1037.29 81.5357C1036.27 80.6723 1035.5 79.1515 1035.5 76.25H1031.5C1031.5 79.8485 1032.48 82.7027 1034.71 84.5893C1036.87 86.4152 1039.82 87 1043 87V83ZM1035.5 76.25V43.5H1031.5V76.25H1035.5ZM1033.5 45.5H1055V41.5H1033.5V45.5ZM1065.25 38.5L1063.88 37.046L1062.4 38.4445L1063.82 39.8996L1065.25 38.5ZM1077.25 50.75L1075.82 52.1496L1077.24 53.5931L1078.66 52.1642L1077.25 50.75ZM1096 56.75L1095.77 54.7637L1095.76 54.7645L1095.75 54.7654L1096 56.75ZM1114.25 91.25L1116.21 90.8699L1115.32 86.238L1112.61 90.1031L1114.25 91.25ZM1137.25 102L1137.58 103.973L1139.25 103.694V102H1137.25ZM1137.25 84.75H1139.25V82.75H1137.25V84.75ZM1098 69.75L1098.32 71.7245L1098.34 71.7213L1098.36 71.7177L1098 69.75ZM1110.75 66.25H1112.75V62.7679L1109.74 64.5224L1110.75 66.25ZM1134.25 82.75C1133.23 82.75 1132.74 82.4763 1132.51 82.242C1132.27 82.0078 1132 81.5225 1132 80.5H1128C1128 82.2275 1128.48 83.8672 1129.68 85.0705C1130.88 86.2737 1132.52 86.75 1134.25 86.75V82.75ZM1132 80.5V51H1128V80.5H1132ZM1132 51C1132 42.5968 1128.91 35.6873 1123.08 30.9204C1117.3 26.1959 1109.05 23.75 1099 23.75V27.75C1108.45 27.75 1115.7 30.0541 1120.55 34.0171C1125.34 37.9377 1128 43.6532 1128 51H1132ZM1099 23.75C1085.04 23.75 1073.28 28.1622 1063.88 37.046L1066.62 39.954C1075.22 31.8378 1085.96 27.75 1099 27.75V23.75ZM1063.82 39.8996L1075.82 52.1496L1078.68 49.3504L1066.68 37.1004L1063.82 39.8996ZM1078.66 52.1642C1084.06 46.7663 1090.56 44 1097.75 44V40C1089.44 40 1081.94 43.2337 1075.84 49.3358L1078.66 52.1642ZM1097.75 44C1101.78 44 1104.76 44.7765 1106.65 45.9276C1108.48 47.0397 1109.25 48.446 1109.25 50H1113.25C1113.25 46.804 1111.52 44.2103 1108.73 42.5099C1105.99 40.8485 1102.22 40 1097.75 40V44ZM1109.25 50C1109.25 50.9146 1108.69 51.8782 1106.13 52.8079C1103.63 53.7164 1100.05 54.2603 1095.77 54.7637L1096.23 58.7363C1100.45 58.2397 1104.49 57.6586 1107.5 56.5671C1110.44 55.4968 1113.25 53.5854 1113.25 50H1109.25ZM1095.75 54.7654C1088.77 55.6387 1080.34 56.9797 1073.65 60.7233C1070.27 62.615 1067.27 65.1502 1065.12 68.5948C1062.97 72.0484 1061.75 76.2994 1061.75 81.5H1065.75C1065.75 76.9506 1066.81 73.4516 1068.52 70.7098C1070.23 67.9591 1072.67 65.8537 1075.6 64.2142C1081.53 60.8953 1089.23 59.6113 1096.25 58.7346L1095.75 54.7654ZM1061.75 81.5C1061.75 88.53 1064.4 94.5254 1069.14 98.7436C1073.85 102.944 1080.49 105.25 1088.25 105.25V101.25C1081.26 101.25 1075.65 99.1814 1071.8 95.7564C1067.97 92.3496 1065.75 87.47 1065.75 81.5H1061.75ZM1088.25 105.25C1099.75 105.25 1110.19 100.543 1115.89 92.3969L1112.61 90.1031C1107.81 96.9565 1098.75 101.25 1088.25 101.25V105.25ZM1112.29 91.6301C1113.11 95.8742 1114.95 99.1985 1118.06 101.411C1121.12 103.588 1125.16 104.5 1130 104.5V100.5C1125.59 100.5 1122.5 99.6616 1120.38 98.1511C1118.3 96.6765 1116.89 94.3758 1116.21 90.8699L1112.29 91.6301ZM1130 104.5C1133.86 104.5 1135.97 104.242 1137.58 103.973L1136.92 100.027C1135.53 100.258 1133.64 100.5 1130 100.5V104.5ZM1139.25 102V84.75H1135.25V102H1139.25ZM1137.25 82.75H1134.25V86.75H1137.25V82.75ZM1092.75 85.5C1089.92 85.5 1087.99 84.818 1086.81 83.8362C1085.68 82.897 1085 81.4986 1085 79.5H1081C1081 82.5014 1082.07 85.103 1084.25 86.9138C1086.38 88.682 1089.33 89.5 1092.75 89.5V85.5ZM1085 79.5C1085 78.0408 1085.36 77.0126 1085.9 76.2325C1086.45 75.4326 1087.3 74.7534 1088.48 74.1679C1090.94 72.9537 1094.36 72.3636 1098.32 71.7245L1097.68 67.7755C1093.89 68.3864 1089.81 69.0463 1086.71 70.5821C1085.11 71.3716 1083.66 72.4424 1082.61 73.955C1081.55 75.4874 1081 77.3342 1081 79.5H1085ZM1098.36 71.7177C1103.71 70.7451 1108.38 69.9472 1111.76 67.9776L1109.74 64.5224C1107.12 66.0528 1103.29 66.7549 1097.64 67.7823L1098.36 71.7177ZM1108.75 66.25V72.75H1112.75V66.25H1108.75ZM1108.75 72.75C1108.75 79.5371 1102.04 85.5 1092.75 85.5V89.5C1103.46 89.5 1112.75 82.4629 1112.75 72.75H1108.75ZM1152.25 102H1150.25V104H1152.25V102ZM1172.25 102V104H1174.25V102H1172.25ZM1172.25 2H1174.25V0H1172.25V2ZM1152.25 2V0H1150.25V2H1152.25ZM1152.25 104H1172.25V100H1152.25V104ZM1174.25 102V2H1170.25V102H1174.25ZM1172.25 0H1152.25V4H1172.25V0ZM1150.25 2V102H1154.25V2H1150.25ZM1321 27V25H1319.44L1319.06 26.5128L1321 27ZM1307.25 81.75L1305.32 82.2703L1307.32 89.6905L1309.19 82.2372L1307.25 81.75ZM1292.5 27L1294.43 26.4797L1294.03 25H1292.5V27ZM1274.25 27V25H1272.71L1272.32 26.4897L1274.25 27ZM1260 81L1258.06 81.4935L1259.97 88.9694L1261.93 81.5103L1260 81ZM1246.25 27L1248.19 26.5065L1247.8 25H1246.25V27ZM1225.5 27V25H1222.82L1223.58 27.5688L1225.5 27ZM1247.75 102L1245.83 102.569L1246.26 104H1247.75V102ZM1270 102V104H1271.52L1271.93 102.532L1270 102ZM1283.25 54L1285.17 53.4492L1283.21 46.6129L1281.32 53.4678L1283.25 54ZM1297 102L1295.08 102.551L1295.49 104H1297V102ZM1319.25 102V104H1320.75L1321.17 102.563L1319.25 102ZM1341.25 27L1343.17 27.563L1343.92 25H1341.25V27ZM1319.06 26.5128L1305.31 81.2628L1309.19 82.2372L1322.94 27.4872L1319.06 26.5128ZM1309.18 81.2297L1294.43 26.4797L1290.57 27.5203L1305.32 82.2703L1309.18 81.2297ZM1292.5 25H1274.25V29H1292.5V25ZM1272.32 26.4897L1258.07 80.4897L1261.93 81.5103L1276.18 27.5103L1272.32 26.4897ZM1261.94 80.5065L1248.19 26.5065L1244.31 27.4935L1258.06 81.4935L1261.94 80.5065ZM1246.25 25H1225.5V29H1246.25V25ZM1223.58 27.5688L1245.83 102.569L1249.67 101.431L1227.42 26.4312L1223.58 27.5688ZM1247.75 104H1270V100H1247.75V104ZM1271.93 102.532L1285.18 54.5322L1281.32 53.4678L1268.07 101.468L1271.93 102.532ZM1281.33 54.5508L1295.08 102.551L1298.92 101.449L1285.17 53.4492L1281.33 54.5508ZM1297 104H1319.25V100H1297V104ZM1321.17 102.563L1343.17 27.563L1339.33 26.437L1317.33 101.437L1321.17 102.563ZM1341.25 25H1321V29H1341.25V25ZM1386.5 105.25C1398.7 105.25 1409.04 101.219 1416.34 94.0176C1423.65 86.8134 1427.75 76.5891 1427.75 64.5H1423.75C1423.75 75.6609 1419.98 84.8116 1413.53 91.1699C1407.08 97.5306 1397.8 101.25 1386.5 101.25V105.25ZM1427.75 64.5C1427.75 52.2995 1423.72 42.07 1416.44 34.8886C1409.16 27.7099 1398.81 23.75 1386.5 23.75V27.75C1397.94 27.75 1407.22 31.4151 1413.63 37.7364C1420.03 44.055 1423.75 53.2005 1423.75 64.5H1427.75ZM1386.5 23.75C1374.3 23.75 1363.96 27.7806 1356.66 34.9824C1349.35 42.1866 1345.25 52.4109 1345.25 64.5H1349.25C1349.25 53.3391 1353.02 44.1884 1359.47 37.8301C1365.92 31.4694 1375.2 27.75 1386.5 27.75V23.75ZM1345.25 64.5C1345.25 76.7005 1349.28 86.93 1356.56 94.1114C1363.84 101.29 1374.19 105.25 1386.5 105.25V101.25C1375.06 101.25 1365.78 97.5849 1359.37 91.2636C1352.97 84.945 1349.25 75.7995 1349.25 64.5H1345.25ZM1386.5 84.75C1381.26 84.75 1377.16 82.8906 1374.33 79.5775C1371.48 76.2263 1369.75 71.1737 1369.75 64.5H1365.75C1365.75 71.8263 1367.65 77.8987 1371.29 82.1725C1374.97 86.4844 1380.24 88.75 1386.5 88.75V84.75ZM1369.75 64.5C1369.75 57.8263 1371.48 52.7737 1374.33 49.4225C1377.16 46.1094 1381.26 44.25 1386.5 44.25V40.25C1380.24 40.25 1374.97 42.5156 1371.29 46.8275C1367.65 51.1013 1365.75 57.1737 1365.75 64.5H1369.75ZM1386.5 44.25C1391.74 44.25 1395.84 46.1094 1398.67 49.4225C1401.52 52.7737 1403.25 57.8263 1403.25 64.5H1407.25C1407.25 57.1737 1405.35 51.1013 1401.71 46.8275C1398.03 42.5156 1392.76 40.25 1386.5 40.25V44.25ZM1403.25 64.5C1403.25 71.1737 1401.52 76.2263 1398.67 79.5775C1395.84 82.8906 1391.74 84.75 1386.5 84.75V88.75C1392.76 88.75 1398.03 86.4844 1401.71 82.1725C1405.35 77.8987 1407.25 71.8263 1407.25 64.5H1403.25ZM1460 38.25L1458.01 38.4271L1458.51 44.0889L1461.66 39.3594L1460 38.25ZM1459 27L1460.99 26.8229L1460.83 25H1459V27ZM1441 27V25H1439V27H1441ZM1441 102H1439V104H1441V102ZM1461 102V104H1463V102H1461ZM1491.25 45.25L1491.02 47.2363L1493.22 47.4955L1493.25 45.277L1491.25 45.25ZM1491.5 26.75L1493.5 26.777L1493.52 25.1505L1491.93 24.7976L1491.5 26.75ZM1484.75 24C1473.41 24 1463.75 29.0233 1458.34 37.1406L1461.66 39.3594C1466.25 32.4767 1474.59 28 1484.75 28V24ZM1461.99 38.0729L1460.99 26.8229L1457.01 27.1771L1458.01 38.4271L1461.99 38.0729ZM1459 25H1441V29H1459V25ZM1439 27V102H1443V27H1439ZM1441 104H1461V100H1441V104ZM1463 102V61.25H1459V102H1463ZM1463 61.25C1463 55.9407 1464.66 52.3636 1467.31 50.0768C1470.01 47.747 1474.04 46.5 1479.25 46.5V42.5C1473.46 42.5 1468.37 43.878 1464.69 47.0482C1460.97 50.2614 1459 55.0593 1459 61.25H1463ZM1479.25 46.5C1482.66 46.5 1486.84 46.7445 1491.02 47.2363L1491.48 43.2637C1487.16 42.7555 1482.84 42.5 1479.25 42.5V46.5ZM1493.25 45.277L1493.5 26.777L1489.5 26.723L1489.25 45.223L1493.25 45.277ZM1491.93 24.7976C1489.54 24.2667 1487.15 24 1484.75 24V28C1486.85 28 1488.96 28.2333 1491.07 28.7024L1491.93 24.7976ZM1555.5 102L1553.84 103.112L1554.43 104H1555.5V102ZM1579 102V104H1582.77L1580.66 100.88L1579 102ZM1548.25 56.5L1546.84 55.0798L1545.66 56.2468L1546.59 57.6199L1548.25 56.5ZM1578 27L1579.41 28.4202L1582.86 25H1578V27ZM1553 27V25H1552.14L1551.55 25.6225L1553 27ZM1524.5 57H1522.5V62.0091L1525.95 58.3775L1524.5 57ZM1524.5 2H1526.5V0H1524.5V2ZM1504.5 2V0H1502.5V2H1504.5ZM1504.5 102H1502.5V104H1504.5V102ZM1524.5 102V104H1526.5V102H1524.5ZM1524.5 79.75L1523.1 78.3175L1522.5 78.9063V79.75H1524.5ZM1534.25 70.25L1535.91 69.1376L1534.58 67.1405L1532.85 68.8175L1534.25 70.25ZM1555.5 104H1579V100H1555.5V104ZM1580.66 100.88L1549.91 55.3801L1546.59 57.6199L1577.34 103.12L1580.66 100.88ZM1549.66 57.9202L1579.41 28.4202L1576.59 25.5798L1546.84 55.0798L1549.66 57.9202ZM1578 25H1553V29H1578V25ZM1551.55 25.6225L1523.05 55.6225L1525.95 58.3775L1554.45 28.3775L1551.55 25.6225ZM1526.5 57V2H1522.5V57H1526.5ZM1524.5 0H1504.5V4H1524.5V0ZM1502.5 2V102H1506.5V2H1502.5ZM1504.5 104H1524.5V100H1504.5V104ZM1526.5 102V79.75H1522.5V102H1526.5ZM1525.9 81.1825L1535.65 71.6825L1532.85 68.8175L1523.1 78.3175L1525.9 81.1825ZM1532.59 71.3624L1553.84 103.112L1557.16 100.888L1535.91 69.1376L1532.59 71.3624ZM1618.25 55.75L1618.71 53.8046L1618.7 53.802L1618.25 55.75ZM1637 49.5L1635.81 51.1071L1637.45 52.3243L1638.63 50.6545L1637 49.5ZM1647.25 35L1648.88 36.1545L1650.08 34.4548L1648.34 33.3221L1647.25 35ZM1613.75 72.75L1613.28 74.6946L1613.29 74.6968L1613.75 72.75ZM1592.25 77.75L1593.6 76.273L1591.94 74.7576L1590.63 76.5821L1592.25 77.75ZM1582 92L1580.38 90.8321L1579.31 92.308L1580.68 93.5052L1582 92ZM1616 105.25C1626.61 105.25 1635.2 103.084 1641.2 98.7812C1647.28 94.4139 1650.5 87.9791 1650.5 80H1646.5C1646.5 86.7709 1643.84 91.9611 1638.87 95.5313C1633.8 99.1661 1626.14 101.25 1616 101.25V105.25ZM1650.5 80C1650.5 73.2038 1648.21 67.8538 1642.87 63.5935C1637.7 59.4604 1629.77 56.4429 1618.71 53.8046L1617.79 57.6954C1628.73 60.3071 1635.93 63.1646 1640.38 66.719C1644.67 70.1462 1646.5 74.2962 1646.5 80H1650.5ZM1618.7 53.802C1613.31 52.5476 1610.14 51.5367 1608.33 50.5103C1607.46 50.0163 1607.04 49.5895 1606.82 49.2506C1606.62 48.939 1606.5 48.5686 1606.5 48H1602.5C1602.5 49.1814 1602.76 50.3422 1603.46 51.4213C1604.14 52.473 1605.13 53.2962 1606.36 53.9897C1608.73 55.3383 1612.44 56.4524 1617.8 57.698L1618.7 53.802ZM1606.5 48C1606.5 47.0605 1606.96 46.2165 1608.36 45.4956C1609.83 44.733 1612.16 44.25 1615.25 44.25V40.25C1611.84 40.25 1608.79 40.767 1606.52 41.9419C1604.16 43.1585 1602.5 45.1895 1602.5 48H1606.5ZM1615.25 44.25C1623.31 44.25 1629.39 46.3528 1635.81 51.1071L1638.19 47.8929C1631.11 42.6472 1624.19 40.25 1615.25 40.25V44.25ZM1638.63 50.6545L1648.88 36.1545L1645.62 33.8455L1635.37 48.3455L1638.63 50.6545ZM1648.34 33.3221C1638.8 27.1354 1628.68 23.75 1617 23.75V27.75C1627.82 27.75 1637.2 30.8646 1646.16 36.6779L1648.34 33.3221ZM1617 23.75C1607.09 23.75 1598.76 26.0631 1592.85 30.3857C1586.88 34.7514 1583.5 41.0938 1583.5 48.75H1587.5C1587.5 42.4062 1590.24 37.2486 1595.21 33.6143C1600.24 29.9369 1607.66 27.75 1617 27.75V23.75ZM1583.5 48.75C1583.5 55.3133 1585.87 60.6913 1590.92 64.9924C1595.87 69.2012 1603.3 72.2932 1613.28 74.6945L1614.22 70.8055C1604.45 68.4568 1597.75 65.5488 1593.51 61.9451C1589.38 58.4337 1587.5 54.1867 1587.5 48.75H1583.5ZM1613.29 74.6968C1619.69 76.2024 1623.32 77.3416 1625.34 78.4203C1626.32 78.9446 1626.76 79.3737 1626.97 79.6802C1627.15 79.9452 1627.25 80.2461 1627.25 80.75H1631.25C1631.25 79.6289 1631 78.4923 1630.27 77.4214C1629.57 76.392 1628.52 75.5866 1627.22 74.8922C1624.68 73.5334 1620.56 72.2976 1614.21 70.8032L1613.29 74.6968ZM1627.25 80.75C1627.25 81.5501 1626.74 82.4648 1624.77 83.2751C1622.83 84.0732 1620 84.5 1616.75 84.5V88.5C1620.25 88.5 1623.67 88.0518 1626.29 86.9749C1628.88 85.9102 1631.25 83.9499 1631.25 80.75H1627.25ZM1616.75 84.5C1606.96 84.5 1598.95 81.159 1593.6 76.273L1590.9 79.227C1597.05 84.841 1606.04 88.5 1616.75 88.5V84.5ZM1590.63 76.5821L1580.38 90.8321L1583.62 93.1679L1593.87 78.9179L1590.63 76.5821ZM1580.68 93.5052C1589.12 100.891 1602.13 105.25 1616 105.25V101.25C1602.87 101.25 1590.88 97.1087 1583.32 90.4948L1580.68 93.5052ZM1681.25 37.5L1679.26 37.6896L1679.74 42.7549L1682.84 38.7169L1681.25 37.5ZM1680.25 27L1682.24 26.8104L1682.07 25H1680.25V27ZM1662.25 27V25H1660.25V27H1662.25ZM1662.25 127H1660.25V129H1662.25V127ZM1682.25 127V129H1684.25V127H1682.25ZM1682.25 93.25L1683.72 91.8959L1680.25 88.1221V93.25H1682.25ZM1705.5 23.75C1694.63 23.75 1685.79 28.2874 1679.66 36.2831L1682.84 38.7169C1688.21 31.7126 1695.87 27.75 1705.5 27.75V23.75ZM1683.24 37.3104L1682.24 26.8104L1678.26 27.1896L1679.26 37.6896L1683.24 37.3104ZM1680.25 25H1662.25V29H1680.25V25ZM1660.25 27V127H1664.25V27H1660.25ZM1662.25 129H1682.25V125H1662.25V129ZM1684.25 127V93.25H1680.25V127H1684.25ZM1680.78 94.6041C1686.9 101.257 1695.18 105.25 1705.5 105.25V101.25C1696.32 101.25 1689.1 97.7428 1683.72 91.8959L1680.78 94.6041ZM1705.5 105.25C1715.59 105.25 1724.15 101.115 1730.16 93.8706C1736.15 86.6565 1739.5 76.4852 1739.5 64.5H1735.5C1735.5 75.7648 1732.35 84.9685 1727.09 91.3169C1721.85 97.6347 1714.41 101.25 1705.5 101.25V105.25ZM1739.5 64.5C1739.5 52.4128 1736.29 42.2358 1730.36 35.0406C1724.39 27.8062 1715.82 23.75 1705.5 23.75V27.75C1714.68 27.75 1722.11 31.3188 1727.27 37.5844C1732.46 43.8892 1735.5 53.0872 1735.5 64.5H1739.5ZM1699.25 84.75C1694.18 84.75 1690.34 82.8623 1687.73 79.5428C1685.06 76.162 1683.5 71.0895 1683.5 64.5H1679.5C1679.5 71.6605 1681.19 77.713 1684.59 82.0197C1688.03 86.3877 1693.07 88.75 1699.25 88.75V84.75ZM1683.5 64.5C1683.5 57.9105 1685.06 52.838 1687.73 49.4572C1690.34 46.1377 1694.18 44.25 1699.25 44.25V40.25C1693.07 40.25 1688.03 42.6123 1684.59 46.9803C1681.19 51.287 1679.5 57.3395 1679.5 64.5H1683.5ZM1699.25 44.25C1704.32 44.25 1708.23 46.1415 1710.91 49.4728C1713.63 52.8571 1715.25 57.9268 1715.25 64.5H1719.25C1719.25 57.3232 1717.49 51.2679 1714.03 46.9647C1710.52 42.6085 1705.43 40.25 1699.25 40.25V44.25ZM1715.25 64.5C1715.25 71.0732 1713.63 76.1429 1710.91 79.5272C1708.23 82.8585 1704.32 84.75 1699.25 84.75V88.75C1705.43 88.75 1710.52 86.3915 1714.03 82.0353C1717.49 77.7321 1719.25 71.6768 1719.25 64.5H1715.25ZM1747.5 38.5L1746.13 37.046L1744.65 38.4445L1746.07 39.8996L1747.5 38.5ZM1759.5 50.75L1758.07 52.1496L1759.49 53.5931L1760.91 52.1642L1759.5 50.75ZM1778.25 56.75L1778.02 54.7637L1778.01 54.7645L1778 54.7654L1778.25 56.75ZM1796.5 91.25L1798.46 90.8699L1797.57 86.238L1794.86 90.1031L1796.5 91.25ZM1819.5 102L1819.83 103.973L1821.5 103.694V102H1819.5ZM1819.5 84.75H1821.5V82.75H1819.5V84.75ZM1780.25 69.75L1780.57 71.7245L1780.59 71.7213L1780.61 71.7177L1780.25 69.75ZM1793 66.25H1795V62.7679L1791.99 64.5224L1793 66.25ZM1816.5 82.75C1815.48 82.75 1814.99 82.4763 1814.76 82.242C1814.52 82.0078 1814.25 81.5225 1814.25 80.5H1810.25C1810.25 82.2275 1810.73 83.8672 1811.93 85.0705C1813.13 86.2737 1814.77 86.75 1816.5 86.75V82.75ZM1814.25 80.5V51H1810.25V80.5H1814.25ZM1814.25 51C1814.25 42.5968 1811.16 35.6873 1805.33 30.9204C1799.55 26.1959 1791.3 23.75 1781.25 23.75V27.75C1790.7 27.75 1797.95 30.0541 1802.8 34.0171C1807.59 37.9377 1810.25 43.6532 1810.25 51H1814.25ZM1781.25 23.75C1767.29 23.75 1755.53 28.1622 1746.13 37.046L1748.87 39.954C1757.47 31.8378 1768.21 27.75 1781.25 27.75V23.75ZM1746.07 39.8996L1758.07 52.1496L1760.93 49.3504L1748.93 37.1004L1746.07 39.8996ZM1760.91 52.1642C1766.31 46.7663 1772.81 44 1780 44V40C1771.69 40 1764.19 43.2337 1758.09 49.3358L1760.91 52.1642ZM1780 44C1784.03 44 1787.01 44.7765 1788.9 45.9276C1790.73 47.0397 1791.5 48.446 1791.5 50H1795.5C1795.5 46.804 1793.77 44.2103 1790.98 42.5099C1788.24 40.8485 1784.47 40 1780 40V44ZM1791.5 50C1791.5 50.9146 1790.94 51.8782 1788.38 52.8079C1785.88 53.7164 1782.3 54.2603 1778.02 54.7637L1778.48 58.7363C1782.7 58.2397 1786.74 57.6586 1789.75 56.5671C1792.69 55.4968 1795.5 53.5854 1795.5 50H1791.5ZM1778 54.7654C1771.02 55.6387 1762.59 56.9797 1755.9 60.7233C1752.52 62.615 1749.52 65.1502 1747.37 68.5948C1745.22 72.0484 1744 76.2994 1744 81.5H1748C1748 76.9506 1749.06 73.4516 1750.77 70.7098C1752.48 67.9591 1754.92 65.8537 1757.85 64.2142C1763.78 60.8953 1771.48 59.6113 1778.5 58.7346L1778 54.7654ZM1744 81.5C1744 88.53 1746.65 94.5254 1751.39 98.7436C1756.1 102.944 1762.74 105.25 1770.5 105.25V101.25C1763.51 101.25 1757.9 99.1814 1754.05 95.7564C1750.22 92.3496 1748 87.47 1748 81.5H1744ZM1770.5 105.25C1782 105.25 1792.44 100.543 1798.14 92.3969L1794.86 90.1031C1790.06 96.9565 1781 101.25 1770.5 101.25V105.25ZM1794.54 91.6301C1795.36 95.8742 1797.2 99.1985 1800.31 101.411C1803.37 103.588 1807.41 104.5 1812.25 104.5V100.5C1807.84 100.5 1804.75 99.6616 1802.63 98.1511C1800.55 96.6765 1799.14 94.3758 1798.46 90.8699L1794.54 91.6301ZM1812.25 104.5C1816.11 104.5 1818.22 104.242 1819.83 103.973L1819.17 100.027C1817.78 100.258 1815.89 100.5 1812.25 100.5V104.5ZM1821.5 102V84.75H1817.5V102H1821.5ZM1819.5 82.75H1816.5V86.75H1819.5V82.75ZM1775 85.5C1772.17 85.5 1770.24 84.818 1769.06 83.8362C1767.93 82.897 1767.25 81.4986 1767.25 79.5H1763.25C1763.25 82.5014 1764.32 85.103 1766.5 86.9138C1768.63 88.682 1771.58 89.5 1775 89.5V85.5ZM1767.25 79.5C1767.25 78.0408 1767.61 77.0126 1768.15 76.2325C1768.7 75.4326 1769.55 74.7534 1770.73 74.1679C1773.19 72.9537 1776.61 72.3636 1780.57 71.7245L1779.93 67.7755C1776.14 68.3864 1772.06 69.0463 1768.96 70.5821C1767.36 71.3716 1765.91 72.4424 1764.86 73.955C1763.8 75.4874 1763.25 77.3342 1763.25 79.5H1767.25ZM1780.61 71.7177C1785.96 70.7451 1790.63 69.9472 1794.01 67.9776L1791.99 64.5224C1789.37 66.0528 1785.54 66.7549 1779.89 67.7823L1780.61 71.7177ZM1791 66.25V72.75H1795V66.25H1791ZM1791 72.75C1791 79.5371 1784.29 85.5 1775 85.5V89.5C1785.71 89.5 1795 82.4629 1795 72.75H1791ZM1901.5 80.75L1903.42 81.3216L1903.99 79.4127L1902.08 78.8357L1901.5 80.75ZM1882.5 75L1883.08 73.0857L1881.27 72.5389L1880.62 74.3115L1882.5 75ZM1882.5 54L1880.62 54.6885L1881.27 56.4611L1883.08 55.9143L1882.5 54ZM1901.5 48.25L1902.08 50.1643L1903.99 49.5873L1903.42 47.6784L1901.5 48.25ZM1866.75 105.25C1884.64 105.25 1898.85 96.6336 1903.42 81.3216L1899.58 80.1784C1895.65 93.3664 1883.36 101.25 1866.75 101.25V105.25ZM1902.08 78.8357L1883.08 73.0857L1881.92 76.9143L1900.92 82.6643L1902.08 78.8357ZM1880.62 74.3115C1879.35 77.7717 1877.5 80.3591 1875.18 82.083C1872.88 83.7989 1869.99 84.75 1866.5 84.75V88.75C1870.76 88.75 1874.5 87.5761 1877.57 85.292C1880.63 83.0159 1882.9 79.7283 1884.38 75.6885L1880.62 74.3115ZM1866.5 84.75C1861.56 84.75 1857.65 82.8655 1854.93 79.5196C1852.17 76.1284 1850.5 71.0567 1850.5 64.5H1846.5C1846.5 71.6933 1848.33 77.7466 1851.82 82.0429C1855.35 86.3845 1860.44 88.75 1866.5 88.75V84.75ZM1850.5 64.5C1850.5 57.9433 1852.17 52.8716 1854.93 49.4804C1857.65 46.1345 1861.56 44.25 1866.5 44.25V40.25C1860.44 40.25 1855.35 42.6155 1851.82 46.9571C1848.33 51.2534 1846.5 57.3067 1846.5 64.5H1850.5ZM1866.5 44.25C1869.99 44.25 1872.88 45.2011 1875.18 46.917C1877.5 48.6409 1879.35 51.2283 1880.62 54.6885L1884.38 53.3115C1882.9 49.2717 1880.63 45.9841 1877.57 43.708C1874.5 41.4239 1870.76 40.25 1866.5 40.25V44.25ZM1883.08 55.9143L1902.08 50.1643L1900.92 46.3357L1881.92 52.0857L1883.08 55.9143ZM1903.42 47.6784C1898.85 32.3664 1884.64 23.75 1866.75 23.75V27.75C1883.36 27.75 1895.65 35.6336 1899.58 48.8216L1903.42 47.6784ZM1866.75 23.75C1854.67 23.75 1844.45 27.7852 1837.24 34.992C1830.04 42.1988 1826 52.4205 1826 64.5H1830C1830 53.3295 1833.71 44.1762 1840.07 37.8205C1846.43 31.4648 1855.58 27.75 1866.75 27.75V23.75ZM1826 64.5C1826 76.5795 1830.04 86.8011 1837.24 94.008C1844.45 101.215 1854.67 105.25 1866.75 105.25V101.25C1855.58 101.25 1846.43 97.5352 1840.07 91.1795C1833.71 84.8239 1830 75.6705 1830 64.5H1826ZM1927.75 71V69H1925.31L1925.79 71.3922L1927.75 71ZM1982.5 71V73H1984.12L1984.46 71.4191L1982.5 71ZM1980.25 90.25L1981.71 91.6179L1983.05 90.1905L1981.65 88.8213L1980.25 90.25ZM1968 78.25L1969.4 76.8213L1967.91 75.3651L1966.52 76.9082L1968 78.25ZM1963.25 56.5V58.5H1965.71L1965.21 56.088L1963.25 56.5ZM1928 56.5L1926.06 56.0273L1925.46 58.5H1928V56.5ZM1927.75 73H1982.5V69H1927.75V73ZM1984.46 71.4191C1985.24 67.7515 1985.25 66.1067 1985.25 64.5H1981.25C1981.25 65.8933 1981.26 67.2485 1980.54 70.5809L1984.46 71.4191ZM1985.25 64.5C1985.25 52.3378 1981.49 42.1196 1974.6 34.9287C1967.7 27.7287 1957.84 23.75 1946 23.75V27.75C1956.91 27.75 1965.67 31.3963 1971.71 37.6963C1977.76 44.0054 1981.25 53.1622 1981.25 64.5H1985.25ZM1946 23.75C1934.03 23.75 1923.99 27.8596 1916.94 35.1057C1909.9 42.3456 1906 52.5599 1906 64.5H1910C1910 53.4401 1913.6 44.2794 1919.81 37.8943C1926.01 31.5154 1934.97 27.75 1946 27.75V23.75ZM1906 64.5C1906 76.014 1909.43 86.2375 1916.43 93.5964C1923.43 100.973 1933.81 105.25 1947.25 105.25V101.25C1934.69 101.25 1925.44 97.2766 1919.32 90.8411C1913.19 84.3875 1910 75.236 1910 64.5H1906ZM1947.25 105.25C1962.24 105.25 1973.79 100.064 1981.71 91.6179L1978.79 88.8821C1971.71 96.4364 1961.26 101.25 1947.25 101.25V105.25ZM1981.65 88.8213L1969.4 76.8213L1966.6 79.6787L1978.85 91.6787L1981.65 88.8213ZM1966.52 76.9082C1962.17 81.7165 1955.97 84.75 1947.5 84.75V88.75C1957.03 88.75 1964.33 85.2835 1969.48 79.5918L1966.52 76.9082ZM1947.5 84.75C1942.49 84.75 1938.52 83.4136 1935.6 81.0661C1932.68 78.7216 1930.64 75.2312 1929.71 70.6078L1925.79 71.3922C1926.86 76.7688 1929.32 81.1534 1933.09 84.1839C1936.86 87.2114 1941.76 88.75 1947.5 88.75V84.75ZM1946 43.75C1950.23 43.75 1953.56 44.9427 1956.04 47.0787C1958.54 49.2259 1960.36 52.4802 1961.29 56.912L1965.21 56.088C1964.14 51.0198 1961.96 46.8991 1958.65 44.0463C1955.32 41.1823 1951.02 39.75 1946 39.75V43.75ZM1963.25 54.5H1928V58.5H1963.25V54.5ZM1929.94 56.9727C1930.98 52.6905 1932.97 49.4081 1935.65 47.1978C1938.31 44.9949 1941.79 43.75 1946 43.75V39.75C1940.96 39.75 1936.56 41.2551 1933.1 44.1147C1929.65 46.9669 1927.27 51.0595 1926.06 56.0273L1929.94 56.9727ZM2076.75 68.75H2074.75V70.75H2076.75V68.75ZM2172.25 68.75V70.75H2174.25V68.75H2172.25ZM2172.25 50.25H2174.25V48.25H2172.25V50.25ZM2076.75 50.25V48.25H2074.75V50.25H2076.75ZM2076.75 70.75H2172.25V66.75H2076.75V70.75ZM2174.25 68.75V50.25H2170.25V68.75H2174.25ZM2172.25 48.25H2076.75V52.25H2172.25V48.25ZM2074.75 50.25V68.75H2078.75V50.25H2074.75ZM2267.25 38.5L2265.88 37.046L2264.4 38.4445L2265.82 39.8996L2267.25 38.5ZM2279.25 50.75L2277.82 52.1496L2279.24 53.5931L2280.66 52.1642L2279.25 50.75ZM2298 56.75L2297.77 54.7637L2297.76 54.7645L2297.75 54.7654L2298 56.75ZM2316.25 91.25L2318.21 90.8699L2317.32 86.238L2314.61 90.1031L2316.25 91.25ZM2339.25 102L2339.58 103.973L2341.25 103.694V102H2339.25ZM2339.25 84.75H2341.25V82.75H2339.25V84.75ZM2300 69.75L2300.32 71.7245L2300.34 71.7213L2300.36 71.7177L2300 69.75ZM2312.75 66.25H2314.75V62.7679L2311.74 64.5224L2312.75 66.25ZM2336.25 82.75C2335.23 82.75 2334.74 82.4763 2334.51 82.242C2334.27 82.0078 2334 81.5225 2334 80.5H2330C2330 82.2275 2330.48 83.8672 2331.68 85.0705C2332.88 86.2737 2334.52 86.75 2336.25 86.75V82.75ZM2334 80.5V51H2330V80.5H2334ZM2334 51C2334 42.5968 2330.91 35.6873 2325.08 30.9204C2319.3 26.1959 2311.05 23.75 2301 23.75V27.75C2310.45 27.75 2317.7 30.0541 2322.55 34.0171C2327.34 37.9377 2330 43.6532 2330 51H2334ZM2301 23.75C2287.04 23.75 2275.28 28.1622 2265.88 37.046L2268.62 39.954C2277.22 31.8378 2287.96 27.75 2301 27.75V23.75ZM2265.82 39.8996L2277.82 52.1496L2280.68 49.3504L2268.68 37.1004L2265.82 39.8996ZM2280.66 52.1642C2286.06 46.7663 2292.56 44 2299.75 44V40C2291.44 40 2283.94 43.2337 2277.84 49.3358L2280.66 52.1642ZM2299.75 44C2303.78 44 2306.76 44.7765 2308.65 45.9276C2310.48 47.0397 2311.25 48.446 2311.25 50H2315.25C2315.25 46.804 2313.52 44.2103 2310.73 42.5099C2307.99 40.8485 2304.22 40 2299.75 40V44ZM2311.25 50C2311.25 50.9146 2310.69 51.8782 2308.13 52.8079C2305.63 53.7164 2302.05 54.2603 2297.77 54.7637L2298.23 58.7363C2302.45 58.2397 2306.49 57.6586 2309.5 56.5671C2312.44 55.4968 2315.25 53.5854 2315.25 50H2311.25ZM2297.75 54.7654C2290.77 55.6387 2282.34 56.9797 2275.65 60.7233C2272.27 62.615 2269.27 65.1502 2267.12 68.5948C2264.97 72.0484 2263.75 76.2994 2263.75 81.5H2267.75C2267.75 76.9506 2268.81 73.4516 2270.52 70.7098C2272.23 67.9591 2274.67 65.8537 2277.6 64.2142C2283.53 60.8953 2291.23 59.6113 2298.25 58.7346L2297.75 54.7654ZM2263.75 81.5C2263.75 88.53 2266.4 94.5254 2271.14 98.7436C2275.85 102.944 2282.49 105.25 2290.25 105.25V101.25C2283.26 101.25 2277.65 99.1814 2273.8 95.7564C2269.97 92.3496 2267.75 87.47 2267.75 81.5H2263.75ZM2290.25 105.25C2301.75 105.25 2312.19 100.543 2317.89 92.3969L2314.61 90.1031C2309.81 96.9565 2300.75 101.25 2290.25 101.25V105.25ZM2314.29 91.6301C2315.11 95.8742 2316.95 99.1985 2320.06 101.411C2323.12 103.588 2327.16 104.5 2332 104.5V100.5C2327.59 100.5 2324.5 99.6616 2322.38 98.1511C2320.3 96.6765 2318.89 94.3758 2318.21 90.8699L2314.29 91.6301ZM2332 104.5C2335.86 104.5 2337.97 104.242 2339.58 103.973L2338.92 100.027C2337.53 100.258 2335.64 100.5 2332 100.5V104.5ZM2341.25 102V84.75H2337.25V102H2341.25ZM2339.25 82.75H2336.25V86.75H2339.25V82.75ZM2294.75 85.5C2291.92 85.5 2289.99 84.818 2288.81 83.8362C2287.68 82.897 2287 81.4986 2287 79.5H2283C2283 82.5014 2284.07 85.103 2286.25 86.9138C2288.38 88.682 2291.33 89.5 2294.75 89.5V85.5ZM2287 79.5C2287 78.0408 2287.36 77.0126 2287.9 76.2325C2288.45 75.4326 2289.3 74.7534 2290.48 74.1679C2292.94 72.9537 2296.36 72.3636 2300.32 71.7245L2299.68 67.7755C2295.89 68.3864 2291.81 69.0463 2288.71 70.5821C2287.11 71.3716 2285.66 72.4424 2284.61 73.955C2283.55 75.4874 2283 77.3342 2283 79.5H2287ZM2300.36 71.7177C2305.71 70.7451 2310.38 69.9472 2313.76 67.9776L2311.74 64.5224C2309.12 66.0528 2305.29 66.7549 2299.64 67.7823L2300.36 71.7177ZM2310.75 66.25V72.75H2314.75V66.25H2310.75ZM2310.75 72.75C2310.75 79.5371 2304.04 85.5 2294.75 85.5V89.5C2305.46 89.5 2314.75 82.4629 2314.75 72.75H2310.75ZM2422.25 55.75L2422.71 53.8046L2422.7 53.802L2422.25 55.75ZM2441 49.5L2439.81 51.1071L2441.45 52.3243L2442.63 50.6545L2441 49.5ZM2451.25 35L2452.88 36.1545L2454.08 34.4548L2452.34 33.3221L2451.25 35ZM2417.75 72.75L2417.28 74.6946L2417.29 74.6968L2417.75 72.75ZM2396.25 77.75L2397.6 76.273L2395.94 74.7576L2394.63 76.5821L2396.25 77.75ZM2386 92L2384.38 90.8321L2383.31 92.308L2384.68 93.5052L2386 92ZM2420 105.25C2430.61 105.25 2439.2 103.084 2445.2 98.7812C2451.28 94.4139 2454.5 87.9791 2454.5 80H2450.5C2450.5 86.7709 2447.84 91.9611 2442.87 95.5313C2437.8 99.1661 2430.14 101.25 2420 101.25V105.25ZM2454.5 80C2454.5 73.2038 2452.21 67.8538 2446.87 63.5935C2441.7 59.4604 2433.77 56.4429 2422.71 53.8046L2421.79 57.6954C2432.73 60.3071 2439.93 63.1646 2444.38 66.719C2448.67 70.1462 2450.5 74.2962 2450.5 80H2454.5ZM2422.7 53.802C2417.31 52.5476 2414.14 51.5367 2412.33 50.5103C2411.46 50.0163 2411.04 49.5895 2410.82 49.2506C2410.62 48.939 2410.5 48.5686 2410.5 48H2406.5C2406.5 49.1814 2406.76 50.3422 2407.46 51.4213C2408.14 52.473 2409.13 53.2962 2410.36 53.9897C2412.73 55.3383 2416.44 56.4524 2421.8 57.698L2422.7 53.802ZM2410.5 48C2410.5 47.0605 2410.96 46.2165 2412.36 45.4956C2413.83 44.733 2416.16 44.25 2419.25 44.25V40.25C2415.84 40.25 2412.79 40.767 2410.52 41.9419C2408.16 43.1585 2406.5 45.1895 2406.5 48H2410.5ZM2419.25 44.25C2427.31 44.25 2433.39 46.3528 2439.81 51.1071L2442.19 47.8929C2435.11 42.6472 2428.19 40.25 2419.25 40.25V44.25ZM2442.63 50.6545L2452.88 36.1545L2449.62 33.8455L2439.37 48.3455L2442.63 50.6545ZM2452.34 33.3221C2442.8 27.1354 2432.68 23.75 2421 23.75V27.75C2431.82 27.75 2441.2 30.8646 2450.16 36.6779L2452.34 33.3221ZM2421 23.75C2411.09 23.75 2402.76 26.0631 2396.85 30.3857C2390.88 34.7514 2387.5 41.0938 2387.5 48.75H2391.5C2391.5 42.4062 2394.24 37.2486 2399.21 33.6143C2404.24 29.9369 2411.66 27.75 2421 27.75V23.75ZM2387.5 48.75C2387.5 55.3133 2389.86 60.6913 2394.92 64.9924C2399.87 69.2012 2407.3 72.2932 2417.28 74.6945L2418.22 70.8055C2408.45 68.4568 2401.75 65.5488 2397.51 61.9451C2393.39 58.4337 2391.5 54.1867 2391.5 48.75H2387.5ZM2417.29 74.6968C2423.69 76.2024 2427.32 77.3416 2429.34 78.4203C2430.32 78.9446 2430.76 79.3737 2430.97 79.6802C2431.15 79.9452 2431.25 80.2461 2431.25 80.75H2435.25C2435.25 79.6289 2435 78.4923 2434.27 77.4214C2433.57 76.392 2432.52 75.5866 2431.22 74.8922C2428.68 73.5334 2424.56 72.2976 2418.21 70.8032L2417.29 74.6968ZM2431.25 80.75C2431.25 81.5501 2430.74 82.4648 2428.77 83.2751C2426.83 84.0732 2424 84.5 2420.75 84.5V88.5C2424.25 88.5 2427.67 88.0518 2430.29 86.9749C2432.88 85.9102 2435.25 83.9499 2435.25 80.75H2431.25ZM2420.75 84.5C2410.96 84.5 2402.95 81.159 2397.6 76.273L2394.9 79.227C2401.05 84.841 2410.04 88.5 2420.75 88.5V84.5ZM2394.63 76.5821L2384.38 90.8321L2387.62 93.1679L2397.87 78.9179L2394.63 76.5821ZM2384.68 93.5052C2393.12 100.891 2406.13 105.25 2420 105.25V101.25C2406.87 101.25 2394.88 97.1087 2387.32 90.4948L2384.68 93.5052ZM2466.75 17.5H2464.75V19.5H2466.75V17.5ZM2488.25 17.5V19.5H2490.25V17.5H2488.25ZM2488.25 0.5H2490.25V-1.5H2488.25V0.5ZM2466.75 0.5V-1.5H2464.75V0.5H2466.75ZM2467.5 102H2465.5V104H2467.5V102ZM2487.5 102V104H2489.5V102H2487.5ZM2487.5 27H2489.5V25H2487.5V27ZM2467.5 27V25H2465.5V27H2467.5ZM2466.75 19.5H2488.25V15.5H2466.75V19.5ZM2490.25 17.5V0.5H2486.25V17.5H2490.25ZM2488.25 -1.5H2466.75V2.5H2488.25V-1.5ZM2464.75 0.5V17.5H2468.75V0.5H2464.75ZM2467.5 104H2487.5V100H2467.5V104ZM2489.5 102V27H2485.5V102H2489.5ZM2487.5 25H2467.5V29H2487.5V25ZM2465.5 27V102H2469.5V27H2465.5ZM2528 37.5L2526.01 37.6425L2526.37 42.7719L2529.57 38.7428L2528 37.5ZM2527.25 27L2529.24 26.8575L2529.11 25H2527.25V27ZM2509.25 27V25H2507.25V27H2509.25ZM2509.25 102H2507.25V104H2509.25V102ZM2529.25 102V104H2531.25V102H2529.25ZM2560 102H2558V104H2560V102ZM2580 102V104H2582V102H2580ZM2553 23.75C2542.15 23.75 2532.57 28.519 2526.43 36.2572L2529.57 38.7428C2534.93 31.981 2543.35 27.75 2553 27.75V23.75ZM2529.99 37.3575L2529.24 26.8575L2525.26 27.1425L2526.01 37.6425L2529.99 37.3575ZM2527.25 25H2509.25V29H2527.25V25ZM2507.25 27V102H2511.25V27H2507.25ZM2509.25 104H2529.25V100H2509.25V104ZM2531.25 102V59.25H2527.25V102H2531.25ZM2531.25 59.25C2531.25 50.4307 2538.03 44.25 2546.5 44.25V40.25C2535.97 40.25 2527.25 48.0693 2527.25 59.25H2531.25ZM2546.5 44.25C2550.24 44.25 2553.01 45.5463 2554.89 47.8556C2556.81 50.2238 2558 53.9036 2558 59H2562C2562 53.3464 2560.69 48.6512 2557.99 45.3319C2555.24 41.9537 2551.26 40.25 2546.5 40.25V44.25ZM2558 59V102H2562V59H2558ZM2560 104H2580V100H2560V104ZM2582 102V54.5H2578V102H2582ZM2582 54.5C2582 45.4469 2579.11 37.7417 2573.95 32.2833C2568.79 26.8159 2561.5 23.75 2553 23.75V27.75C2560.5 27.75 2566.71 30.4341 2571.05 35.0292C2575.39 39.6333 2578 46.3031 2578 54.5H2582ZM2651.25 27V25H2649.4L2649.26 26.8426L2651.25 27ZM2650.5 36.5L2648.98 37.7969L2652.11 41.478L2652.49 36.6574L2650.5 36.5ZM2650.25 87.25H2652.25V81.818L2648.73 85.9531L2650.25 87.25ZM2607.25 104.25L2608.5 102.688L2606.75 101.291L2605.56 103.182L2607.25 104.25ZM2598.25 118.5L2596.56 117.432L2595.65 118.864L2596.92 119.992L2598.25 118.5ZM2669.25 27H2671.25V25H2669.25V27ZM2649.26 26.8426L2648.51 36.3426L2652.49 36.6574L2653.24 27.1574L2649.26 26.8426ZM2652.02 35.2031C2645.88 27.9924 2637.07 23.75 2626.25 23.75V27.75C2635.93 27.75 2643.62 31.5076 2648.98 37.7969L2652.02 35.2031ZM2626.25 23.75C2616.1 23.75 2607.49 27.5201 2601.42 34.2554C2595.37 40.9722 2592 50.481 2592 61.75H2596C2596 51.269 2599.13 42.7778 2604.39 36.9321C2609.64 31.1049 2617.15 27.75 2626.25 27.75V23.75ZM2592 61.75C2592 73.0083 2595.3 82.5765 2601.32 89.3581C2607.35 96.1628 2615.97 100 2626.25 100V96C2617.03 96 2609.53 92.5872 2604.31 86.7044C2599.07 80.7985 2596 72.2417 2596 61.75H2592ZM2626.25 100C2636.83 100 2645.64 95.7511 2651.77 88.5469L2648.73 85.9531C2643.36 92.2489 2635.67 96 2626.25 96V100ZM2648.25 87.25V92.5H2652.25V87.25H2648.25ZM2648.25 92.5C2648.25 97.9223 2646.84 102.155 2644.01 105.037C2641.19 107.91 2636.66 109.75 2629.75 109.75V113.75C2637.34 113.75 2643.06 111.715 2646.86 107.838C2650.66 103.97 2652.25 98.5777 2652.25 92.5H2648.25ZM2629.75 109.75C2620.92 109.75 2614.37 107.386 2608.5 102.688L2606 105.812C2612.63 111.114 2620.08 113.75 2629.75 113.75V109.75ZM2605.56 103.182L2596.56 117.432L2599.94 119.568L2608.94 105.318L2605.56 103.182ZM2596.92 119.992C2604.41 126.678 2615.45 130.25 2630.25 130.25V126.25C2616.05 126.25 2606.09 122.822 2599.58 117.008L2596.92 119.992ZM2630.25 130.25C2643.12 130.25 2653.42 126.575 2660.5 119.823C2667.6 113.061 2671.25 103.433 2671.25 92H2667.25C2667.25 102.567 2663.9 111.064 2657.75 116.927C2651.58 122.8 2642.38 126.25 2630.25 126.25V130.25ZM2671.25 92V27H2667.25V92H2671.25ZM2669.25 25H2651.25V29H2669.25V25ZM2632.25 80.75C2627.25 80.75 2623.32 79.0041 2620.62 75.9558C2617.9 72.88 2616.25 68.2715 2616.25 62.25H2612.25C2612.25 68.9785 2614.1 74.62 2617.63 78.6067C2621.18 82.6209 2626.25 84.75 2632.25 84.75V80.75ZM2616.25 62.25C2616.25 56.4973 2617.89 52.0147 2620.61 48.9949C2623.31 45.9977 2627.24 44.25 2632.25 44.25V40.25C2626.26 40.25 2621.19 42.3773 2617.64 46.3176C2614.11 50.2353 2612.25 55.7527 2612.25 62.25H2616.25ZM2632.25 44.25C2637.41 44.25 2641.26 45.9521 2643.84 48.8853C2646.46 51.853 2648 56.3271 2648 62.25H2652C2652 55.6729 2650.29 50.147 2646.84 46.2397C2643.37 42.2979 2638.34 40.25 2632.25 40.25V44.25ZM2648 62.25C2648 68.3072 2646.46 72.9153 2643.83 75.9786C2641.23 79.0005 2637.39 80.75 2632.25 80.75V84.75C2638.36 84.75 2643.39 82.6245 2646.86 78.5839C2650.29 74.5847 2652 68.9428 2652 62.25H2648ZM2689.75 102H2687.75V104H2689.75V102ZM2709.75 102V104H2711.75V102H2709.75ZM2709.75 2H2711.75V0H2709.75V2ZM2689.75 2V0H2687.75V2H2689.75ZM2689.75 104H2709.75V100H2689.75V104ZM2711.75 102V2H2707.75V102H2711.75ZM2709.75 0H2689.75V4H2709.75V0ZM2687.75 2V102H2691.75V2H2687.75ZM2744.75 71V69H2742.31L2742.79 71.3922L2744.75 71ZM2799.5 71V73H2801.12L2801.46 71.4191L2799.5 71ZM2797.25 90.25L2798.71 91.6179L2800.05 90.1905L2798.65 88.8213L2797.25 90.25ZM2785 78.25L2786.4 76.8213L2784.91 75.3651L2783.52 76.9082L2785 78.25ZM2780.25 56.5V58.5H2782.71L2782.21 56.088L2780.25 56.5ZM2745 56.5L2743.06 56.0273L2742.46 58.5H2745V56.5ZM2744.75 73H2799.5V69H2744.75V73ZM2801.46 71.4191C2802.24 67.7515 2802.25 66.1067 2802.25 64.5H2798.25C2798.25 65.8933 2798.26 67.2485 2797.54 70.5809L2801.46 71.4191ZM2802.25 64.5C2802.25 52.3378 2798.49 42.1196 2791.6 34.9287C2784.7 27.7287 2774.84 23.75 2763 23.75V27.75C2773.91 27.75 2782.67 31.3963 2788.71 37.6963C2794.76 44.0054 2798.25 53.1622 2798.25 64.5H2802.25ZM2763 23.75C2751.03 23.75 2740.99 27.8596 2733.94 35.1057C2726.9 42.3456 2723 52.5599 2723 64.5H2727C2727 53.4401 2730.6 44.2794 2736.81 37.8943C2743.01 31.5154 2751.97 27.75 2763 27.75V23.75ZM2723 64.5C2723 76.014 2726.43 86.2375 2733.43 93.5964C2740.43 100.973 2750.81 105.25 2764.25 105.25V101.25C2751.69 101.25 2742.44 97.2766 2736.32 90.8411C2730.19 84.3875 2727 75.236 2727 64.5H2723ZM2764.25 105.25C2779.24 105.25 2790.79 100.064 2798.71 91.6179L2795.79 88.8821C2788.71 96.4364 2778.26 101.25 2764.25 101.25V105.25ZM2798.65 88.8213L2786.4 76.8213L2783.6 79.6787L2795.85 91.6787L2798.65 88.8213ZM2783.52 76.9082C2779.17 81.7165 2772.97 84.75 2764.5 84.75V88.75C2774.03 88.75 2781.33 85.2835 2786.48 79.5918L2783.52 76.9082ZM2764.5 84.75C2759.49 84.75 2755.52 83.4136 2752.6 81.0661C2749.68 78.7216 2747.64 75.2312 2746.71 70.6078L2742.79 71.3922C2743.86 76.7688 2746.32 81.1534 2750.09 84.1839C2753.86 87.2114 2758.76 88.75 2764.5 88.75V84.75ZM2763 43.75C2767.23 43.75 2770.56 44.9427 2773.04 47.0787C2775.54 49.2259 2777.36 52.4802 2778.29 56.912L2782.21 56.088C2781.14 51.0198 2778.96 46.8991 2775.65 44.0463C2772.32 41.1823 2768.02 39.75 2763 39.75V43.75ZM2780.25 54.5H2745V58.5H2780.25V54.5ZM2746.94 56.9727C2747.98 52.6905 2749.98 49.4081 2752.65 47.1978C2755.31 44.9949 2758.79 43.75 2763 43.75V39.75C2757.96 39.75 2753.56 41.2551 2750.1 44.1147C2746.65 46.9669 2744.27 51.0595 2743.06 56.0273L2746.94 56.9727ZM2905.25 2V0H2903.25V2H2905.25ZM2905.25 35.75L2903.78 37.1041L2907.25 40.8779V35.75H2905.25ZM2906.25 91.5L2908.24 91.3104L2907.76 86.2451L2904.66 90.2831L2906.25 91.5ZM2907.25 102L2905.26 102.19L2905.43 104H2907.25V102ZM2925.25 102V104H2927.25V102H2925.25ZM2925.25 2H2927.25V0H2925.25V2ZM2903.25 2V35.75H2907.25V2H2903.25ZM2906.72 34.3959C2900.6 27.7428 2892.32 23.75 2882 23.75V27.75C2891.18 27.75 2898.4 31.2572 2903.78 37.1041L2906.72 34.3959ZM2882 23.75C2871.91 23.75 2863.34 27.8847 2857.34 35.1294C2851.35 42.3435 2848 52.5148 2848 64.5H2852C2852 53.2352 2855.15 44.0315 2860.41 37.6831C2865.66 31.3653 2873.09 27.75 2882 27.75V23.75ZM2848 64.5C2848 76.5872 2851.21 86.7642 2857.14 93.9594C2863.11 101.194 2871.68 105.25 2882 105.25V101.25C2872.82 101.25 2865.39 97.6812 2860.23 91.4156C2855.04 85.1108 2852 75.9128 2852 64.5H2848ZM2882 105.25C2892.87 105.25 2901.71 100.713 2907.84 92.7169L2904.66 90.2831C2899.29 97.2874 2891.63 101.25 2882 101.25V105.25ZM2904.26 91.6896L2905.26 102.19L2909.24 101.81L2908.24 91.3104L2904.26 91.6896ZM2907.25 104H2925.25V100H2907.25V104ZM2927.25 102V2H2923.25V102H2927.25ZM2925.25 0H2905.25V4H2925.25V0ZM2888.25 84.75C2883.18 84.75 2879.27 82.8585 2876.59 79.5272C2873.87 76.1429 2872.25 71.0732 2872.25 64.5H2868.25C2868.25 71.6768 2870.01 77.7321 2873.47 82.0353C2876.98 86.3915 2882.07 88.75 2888.25 88.75V84.75ZM2872.25 64.5C2872.25 57.9268 2873.87 52.8571 2876.59 49.4728C2879.27 46.1415 2883.18 44.25 2888.25 44.25V40.25C2882.07 40.25 2876.98 42.6085 2873.47 46.9647C2870.01 51.2679 2868.25 57.3232 2868.25 64.5H2872.25ZM2888.25 44.25C2893.32 44.25 2897.16 46.1377 2899.77 49.4572C2902.44 52.838 2904 57.9105 2904 64.5H2908C2908 57.3395 2906.31 51.287 2902.91 46.9803C2899.47 42.6123 2894.43 40.25 2888.25 40.25V44.25ZM2904 64.5C2904 71.0895 2902.44 76.162 2899.77 79.5428C2897.16 82.8623 2893.32 84.75 2888.25 84.75V88.75C2894.43 88.75 2899.47 86.3877 2902.91 82.0197C2906.31 77.713 2908 71.6605 2908 64.5H2904ZM2946.25 17.5H2944.25V19.5H2946.25V17.5ZM2967.75 17.5V19.5H2969.75V17.5H2967.75ZM2967.75 0.5H2969.75V-1.5H2967.75V0.5ZM2946.25 0.5V-1.5H2944.25V0.5H2946.25ZM2947 102H2945V104H2947V102ZM2967 102V104H2969V102H2967ZM2967 27H2969V25H2967V27ZM2947 27V25H2945V27H2947ZM2946.25 19.5H2967.75V15.5H2946.25V19.5ZM2969.75 17.5V0.5H2965.75V17.5H2969.75ZM2967.75 -1.5H2946.25V2.5H2967.75V-1.5ZM2944.25 0.5V17.5H2948.25V0.5H2944.25ZM2947 104H2967V100H2947V104ZM2969 102V27H2965V102H2969ZM2967 25H2947V29H2967V25ZM2945 27V102H2949V27H2945ZM3040.75 27V25H3038.9L3038.76 26.8426L3040.75 27ZM3040 36.5L3038.48 37.7969L3041.61 41.478L3041.99 36.6574L3040 36.5ZM3039.75 87.25H3041.75V81.818L3038.23 85.9531L3039.75 87.25ZM2996.75 104.25L2998 102.688L2996.25 101.291L2995.06 103.182L2996.75 104.25ZM2987.75 118.5L2986.06 117.432L2985.15 118.864L2986.42 119.992L2987.75 118.5ZM3058.75 27H3060.75V25H3058.75V27ZM3038.76 26.8426L3038.01 36.3426L3041.99 36.6574L3042.74 27.1574L3038.76 26.8426ZM3041.52 35.2031C3035.38 27.9924 3026.57 23.75 3015.75 23.75V27.75C3025.43 27.75 3033.12 31.5076 3038.48 37.7969L3041.52 35.2031ZM3015.75 23.75C3005.6 23.75 2996.99 27.5201 2990.92 34.2554C2984.87 40.9722 2981.5 50.481 2981.5 61.75H2985.5C2985.5 51.269 2988.63 42.7778 2993.89 36.9321C2999.14 31.1049 3006.65 27.75 3015.75 27.75V23.75ZM2981.5 61.75C2981.5 73.0083 2984.8 82.5765 2990.82 89.3581C2996.85 96.1628 3005.47 100 3015.75 100V96C3006.53 96 2999.03 92.5872 2993.81 86.7044C2988.57 80.7985 2985.5 72.2417 2985.5 61.75H2981.5ZM3015.75 100C3026.33 100 3035.14 95.7511 3041.27 88.5469L3038.23 85.9531C3032.86 92.2489 3025.17 96 3015.75 96V100ZM3037.75 87.25V92.5H3041.75V87.25H3037.75ZM3037.75 92.5C3037.75 97.9223 3036.34 102.155 3033.51 105.037C3030.69 107.91 3026.16 109.75 3019.25 109.75V113.75C3026.84 113.75 3032.56 111.715 3036.36 107.838C3040.16 103.97 3041.75 98.5777 3041.75 92.5H3037.75ZM3019.25 109.75C3010.42 109.75 3003.87 107.386 2998 102.688L2995.5 105.812C3002.13 111.114 3009.58 113.75 3019.25 113.75V109.75ZM2995.06 103.182L2986.06 117.432L2989.44 119.568L2998.44 105.318L2995.06 103.182ZM2986.42 119.992C2993.91 126.678 3004.95 130.25 3019.75 130.25V126.25C3005.55 126.25 2995.59 122.822 2989.08 117.008L2986.42 119.992ZM3019.75 130.25C3032.62 130.25 3042.92 126.575 3050 119.823C3057.1 113.061 3060.75 103.433 3060.75 92H3056.75C3056.75 102.567 3053.4 111.064 3047.25 116.927C3041.08 122.8 3031.88 126.25 3019.75 126.25V130.25ZM3060.75 92V27H3056.75V92H3060.75ZM3058.75 25H3040.75V29H3058.75V25ZM3021.75 80.75C3016.75 80.75 3012.82 79.0041 3010.12 75.9558C3007.4 72.88 3005.75 68.2715 3005.75 62.25H3001.75C3001.75 68.9785 3003.6 74.62 3007.13 78.6067C3010.68 82.6209 3015.75 84.75 3021.75 84.75V80.75ZM3005.75 62.25C3005.75 56.4973 3007.39 52.0147 3010.11 48.9949C3012.81 45.9977 3016.74 44.25 3021.75 44.25V40.25C3015.76 40.25 3010.69 42.3773 3007.14 46.3176C3003.61 50.2353 3001.75 55.7527 3001.75 62.25H3005.75ZM3021.75 44.25C3026.91 44.25 3030.76 45.9521 3033.34 48.8853C3035.96 51.853 3037.5 56.3271 3037.5 62.25H3041.5C3041.5 55.6729 3039.79 50.147 3036.34 46.2397C3032.87 42.2979 3027.84 40.25 3021.75 40.25V44.25ZM3037.5 62.25C3037.5 68.3072 3035.96 72.9153 3033.33 75.9786C3030.73 79.0005 3026.89 80.75 3021.75 80.75V84.75C3027.86 84.75 3032.89 82.6245 3036.36 78.5839C3039.79 74.5847 3041.5 68.9428 3041.5 62.25H3037.5ZM3079.75 17.5H3077.75V19.5H3079.75V17.5ZM3101.25 17.5V19.5H3103.25V17.5H3101.25ZM3101.25 0.5H3103.25V-1.5H3101.25V0.5ZM3079.75 0.5V-1.5H3077.75V0.5H3079.75ZM3080.5 102H3078.5V104H3080.5V102ZM3100.5 102V104H3102.5V102H3100.5ZM3100.5 27H3102.5V25H3100.5V27ZM3080.5 27V25H3078.5V27H3080.5ZM3079.75 19.5H3101.25V15.5H3079.75V19.5ZM3103.25 17.5V0.5H3099.25V17.5H3103.25ZM3101.25 -1.5H3079.75V2.5H3101.25V-1.5ZM3077.75 0.5V17.5H3081.75V0.5H3077.75ZM3080.5 104H3100.5V100H3080.5V104ZM3102.5 102V27H3098.5V102H3102.5ZM3100.5 25H3080.5V29H3100.5V25ZM3078.5 27V102H3082.5V27H3078.5ZM3171 43.5V45.5H3173V43.5H3171ZM3171 27H3173V25H3171V27ZM3149.5 27H3147.5V29H3149.5V27ZM3149.5 7H3151.5V5H3149.5V7ZM3131.5 7V5H3129.69L3129.51 6.80099L3131.5 7ZM3129.5 27V29H3131.31L3131.49 27.199L3129.5 27ZM3114.5 27V25H3112.5V27H3114.5ZM3114.5 43.5H3112.5V45.5H3114.5V43.5ZM3129.5 43.5H3131.5V41.5H3129.5V43.5ZM3171 101.5L3171.53 103.43L3173 103.028V101.5H3171ZM3171 83.75H3173V81.1884L3170.51 81.8097L3171 83.75ZM3149.5 43.5V41.5H3147.5V43.5H3149.5ZM3173 43.5V27H3169V43.5H3173ZM3171 25H3149.5V29H3171V25ZM3151.5 27V7H3147.5V27H3151.5ZM3149.5 5H3131.5V9H3149.5V5ZM3129.51 6.80099L3127.51 26.801L3131.49 27.199L3133.49 7.19901L3129.51 6.80099ZM3129.5 25H3114.5V29H3129.5V25ZM3112.5 27V43.5H3116.5V27H3112.5ZM3114.5 45.5H3129.5V41.5H3114.5V45.5ZM3127.5 43.5V81H3131.5V43.5H3127.5ZM3127.5 81C3127.5 88.9258 3129.96 95.1606 3134.78 99.3795C3139.55 103.559 3146.34 105.5 3154.5 105.5V101.5C3146.91 101.5 3141.2 99.6907 3137.41 96.3705C3133.67 93.0894 3131.5 88.0742 3131.5 81H3127.5ZM3154.5 105.5C3160.12 105.5 3165.81 104.989 3171.53 103.43L3170.47 99.5705C3165.19 101.011 3159.88 101.5 3154.5 101.5V105.5ZM3173 101.5V83.75H3169V101.5H3173ZM3170.51 81.8097C3166.73 82.7557 3163.66 83 3159 83V87C3163.84 87 3167.27 86.7443 3171.49 85.6903L3170.51 81.8097ZM3159 83C3156.18 83 3154.38 82.4598 3153.29 81.5357C3152.27 80.6723 3151.5 79.1515 3151.5 76.25H3147.5C3147.5 79.8485 3148.48 82.7027 3150.71 84.5893C3152.87 86.4152 3155.82 87 3159 87V83ZM3151.5 76.25V43.5H3147.5V76.25H3151.5ZM3149.5 45.5H3171V41.5H3149.5V45.5ZM3181.25 38.5L3179.88 37.046L3178.4 38.4445L3179.82 39.8996L3181.25 38.5ZM3193.25 50.75L3191.82 52.1496L3193.24 53.5931L3194.66 52.1642L3193.25 50.75ZM3212 56.75L3211.77 54.7637L3211.76 54.7645L3211.75 54.7654L3212 56.75ZM3230.25 91.25L3232.21 90.8699L3231.32 86.238L3228.61 90.1031L3230.25 91.25ZM3253.25 102L3253.58 103.973L3255.25 103.694V102H3253.25ZM3253.25 84.75H3255.25V82.75H3253.25V84.75ZM3214 69.75L3214.32 71.7245L3214.34 71.7213L3214.36 71.7177L3214 69.75ZM3226.75 66.25H3228.75V62.7679L3225.74 64.5224L3226.75 66.25ZM3250.25 82.75C3249.23 82.75 3248.74 82.4763 3248.51 82.242C3248.27 82.0078 3248 81.5225 3248 80.5H3244C3244 82.2275 3244.48 83.8672 3245.68 85.0705C3246.88 86.2737 3248.52 86.75 3250.25 86.75V82.75ZM3248 80.5V51H3244V80.5H3248ZM3248 51C3248 42.5968 3244.91 35.6873 3239.08 30.9204C3233.3 26.1959 3225.05 23.75 3215 23.75V27.75C3224.45 27.75 3231.7 30.0541 3236.55 34.0171C3241.34 37.9377 3244 43.6532 3244 51H3248ZM3215 23.75C3201.04 23.75 3189.28 28.1622 3179.88 37.046L3182.62 39.954C3191.22 31.8378 3201.96 27.75 3215 27.75V23.75ZM3179.82 39.8996L3191.82 52.1496L3194.68 49.3504L3182.68 37.1004L3179.82 39.8996ZM3194.66 52.1642C3200.06 46.7663 3206.56 44 3213.75 44V40C3205.44 40 3197.94 43.2337 3191.84 49.3358L3194.66 52.1642ZM3213.75 44C3217.78 44 3220.76 44.7765 3222.65 45.9276C3224.48 47.0397 3225.25 48.446 3225.25 50H3229.25C3229.25 46.804 3227.52 44.2103 3224.73 42.5099C3221.99 40.8485 3218.22 40 3213.75 40V44ZM3225.25 50C3225.25 50.9146 3224.69 51.8782 3222.13 52.8079C3219.63 53.7164 3216.05 54.2603 3211.77 54.7637L3212.23 58.7363C3216.45 58.2397 3220.49 57.6586 3223.5 56.5671C3226.44 55.4968 3229.25 53.5854 3229.25 50H3225.25ZM3211.75 54.7654C3204.77 55.6387 3196.34 56.9797 3189.65 60.7233C3186.27 62.615 3183.27 65.1502 3181.12 68.5948C3178.97 72.0484 3177.75 76.2994 3177.75 81.5H3181.75C3181.75 76.9506 3182.81 73.4516 3184.52 70.7098C3186.23 67.9591 3188.67 65.8537 3191.6 64.2142C3197.53 60.8953 3205.23 59.6113 3212.25 58.7346L3211.75 54.7654ZM3177.75 81.5C3177.75 88.53 3180.4 94.5254 3185.14 98.7436C3189.85 102.944 3196.49 105.25 3204.25 105.25V101.25C3197.26 101.25 3191.65 99.1814 3187.8 95.7564C3183.97 92.3496 3181.75 87.47 3181.75 81.5H3177.75ZM3204.25 105.25C3215.75 105.25 3226.19 100.543 3231.89 92.3969L3228.61 90.1031C3223.81 96.9565 3214.75 101.25 3204.25 101.25V105.25ZM3228.29 91.6301C3229.11 95.8742 3230.95 99.1985 3234.06 101.411C3237.12 103.588 3241.16 104.5 3246 104.5V100.5C3241.59 100.5 3238.5 99.6616 3236.38 98.1511C3234.3 96.6765 3232.89 94.3758 3232.21 90.8699L3228.29 91.6301ZM3246 104.5C3249.86 104.5 3251.97 104.242 3253.58 103.973L3252.92 100.027C3251.53 100.258 3249.64 100.5 3246 100.5V104.5ZM3255.25 102V84.75H3251.25V102H3255.25ZM3253.25 82.75H3250.25V86.75H3253.25V82.75ZM3208.75 85.5C3205.92 85.5 3203.99 84.818 3202.81 83.8362C3201.68 82.897 3201 81.4986 3201 79.5H3197C3197 82.5014 3198.07 85.103 3200.25 86.9138C3202.38 88.682 3205.33 89.5 3208.75 89.5V85.5ZM3201 79.5C3201 78.0408 3201.36 77.0126 3201.9 76.2325C3202.45 75.4326 3203.3 74.7534 3204.48 74.1679C3206.94 72.9537 3210.36 72.3636 3214.32 71.7245L3213.68 67.7755C3209.89 68.3864 3205.81 69.0463 3202.71 70.5821C3201.11 71.3716 3199.66 72.4424 3198.61 73.955C3197.55 75.4874 3197 77.3342 3197 79.5H3201ZM3214.36 71.7177C3219.71 70.7451 3224.38 69.9472 3227.76 67.9776L3225.74 64.5224C3223.12 66.0528 3219.29 66.7549 3213.64 67.7823L3214.36 71.7177ZM3224.75 66.25V72.75H3228.75V66.25H3224.75ZM3224.75 72.75C3224.75 79.5371 3218.04 85.5 3208.75 85.5V89.5C3219.46 89.5 3228.75 82.4629 3228.75 72.75H3224.75ZM3268.25 102H3266.25V104H3268.25V102ZM3288.25 102V104H3290.25V102H3288.25ZM3288.25 2H3290.25V0H3288.25V2ZM3268.25 2V0H3266.25V2H3268.25ZM3268.25 104H3288.25V100H3268.25V104ZM3290.25 102V2H3286.25V102H3290.25ZM3288.25 0H3268.25V4H3288.25V0ZM3266.25 2V102H3270.25V2H3266.25ZM3437 27V25H3435.44L3435.06 26.5128L3437 27ZM3423.25 81.75L3421.32 82.2703L3423.32 89.6905L3425.19 82.2372L3423.25 81.75ZM3408.5 27L3410.43 26.4797L3410.03 25H3408.5V27ZM3390.25 27V25H3388.71L3388.32 26.4897L3390.25 27ZM3376 81L3374.06 81.4935L3375.97 88.9694L3377.93 81.5103L3376 81ZM3362.25 27L3364.19 26.5065L3363.8 25H3362.25V27ZM3341.5 27V25H3338.82L3339.58 27.5688L3341.5 27ZM3363.75 102L3361.83 102.569L3362.26 104H3363.75V102ZM3386 102V104H3387.52L3387.93 102.532L3386 102ZM3399.25 54L3401.17 53.4492L3399.21 46.6129L3397.32 53.4678L3399.25 54ZM3413 102L3411.08 102.551L3411.49 104H3413V102ZM3435.25 102V104H3436.75L3437.17 102.563L3435.25 102ZM3457.25 27L3459.17 27.563L3459.92 25H3457.25V27ZM3435.06 26.5128L3421.31 81.2628L3425.19 82.2372L3438.94 27.4872L3435.06 26.5128ZM3425.18 81.2297L3410.43 26.4797L3406.57 27.5203L3421.32 82.2703L3425.18 81.2297ZM3408.5 25H3390.25V29H3408.5V25ZM3388.32 26.4897L3374.07 80.4897L3377.93 81.5103L3392.18 27.5103L3388.32 26.4897ZM3377.94 80.5065L3364.19 26.5065L3360.31 27.4935L3374.06 81.4935L3377.94 80.5065ZM3362.25 25H3341.5V29H3362.25V25ZM3339.58 27.5688L3361.83 102.569L3365.67 101.431L3343.42 26.4312L3339.58 27.5688ZM3363.75 104H3386V100H3363.75V104ZM3387.93 102.532L3401.18 54.5322L3397.32 53.4678L3384.07 101.468L3387.93 102.532ZM3397.33 54.5508L3411.08 102.551L3414.92 101.449L3401.17 53.4492L3397.33 54.5508ZM3413 104H3435.25V100H3413V104ZM3437.17 102.563L3459.17 27.563L3455.33 26.437L3433.33 101.437L3437.17 102.563ZM3457.25 25H3437V29H3457.25V25ZM3502.5 105.25C3514.7 105.25 3525.04 101.219 3532.34 94.0176C3539.65 86.8134 3543.75 76.5891 3543.75 64.5H3539.75C3539.75 75.6609 3535.98 84.8116 3529.53 91.1699C3523.08 97.5306 3513.8 101.25 3502.5 101.25V105.25ZM3543.75 64.5C3543.75 52.2995 3539.72 42.07 3532.44 34.8886C3525.16 27.7099 3514.81 23.75 3502.5 23.75V27.75C3513.94 27.75 3523.22 31.4151 3529.63 37.7364C3536.03 44.055 3539.75 53.2005 3539.75 64.5H3543.75ZM3502.5 23.75C3490.3 23.75 3479.96 27.7806 3472.66 34.9824C3465.35 42.1866 3461.25 52.4109 3461.25 64.5H3465.25C3465.25 53.3391 3469.02 44.1884 3475.47 37.8301C3481.92 31.4694 3491.2 27.75 3502.5 27.75V23.75ZM3461.25 64.5C3461.25 76.7005 3465.28 86.93 3472.56 94.1114C3479.84 101.29 3490.19 105.25 3502.5 105.25V101.25C3491.06 101.25 3481.78 97.5849 3475.37 91.2636C3468.97 84.945 3465.25 75.7995 3465.25 64.5H3461.25ZM3502.5 84.75C3497.26 84.75 3493.16 82.8906 3490.33 79.5775C3487.48 76.2263 3485.75 71.1737 3485.75 64.5H3481.75C3481.75 71.8263 3483.65 77.8987 3487.29 82.1725C3490.97 86.4844 3496.24 88.75 3502.5 88.75V84.75ZM3485.75 64.5C3485.75 57.8263 3487.48 52.7737 3490.33 49.4225C3493.16 46.1094 3497.26 44.25 3502.5 44.25V40.25C3496.24 40.25 3490.97 42.5156 3487.29 46.8275C3483.65 51.1013 3481.75 57.1737 3481.75 64.5H3485.75ZM3502.5 44.25C3507.74 44.25 3511.84 46.1094 3514.67 49.4225C3517.52 52.7737 3519.25 57.8263 3519.25 64.5H3523.25C3523.25 57.1737 3521.35 51.1013 3517.71 46.8275C3514.03 42.5156 3508.76 40.25 3502.5 40.25V44.25ZM3519.25 64.5C3519.25 71.1737 3517.52 76.2263 3514.67 79.5775C3511.84 82.8906 3507.74 84.75 3502.5 84.75V88.75C3508.76 88.75 3514.03 86.4844 3517.71 82.1725C3521.35 77.8987 3523.25 71.8263 3523.25 64.5H3519.25ZM3576 38.25L3574.01 38.4271L3574.51 44.0889L3577.66 39.3594L3576 38.25ZM3575 27L3576.99 26.8229L3576.83 25H3575V27ZM3557 27V25H3555V27H3557ZM3557 102H3555V104H3557V102ZM3577 102V104H3579V102H3577ZM3607.25 45.25L3607.02 47.2363L3609.22 47.4955L3609.25 45.277L3607.25 45.25ZM3607.5 26.75L3609.5 26.777L3609.52 25.1505L3607.93 24.7976L3607.5 26.75ZM3600.75 24C3589.41 24 3579.75 29.0233 3574.34 37.1406L3577.66 39.3594C3582.25 32.4767 3590.59 28 3600.75 28V24ZM3577.99 38.0729L3576.99 26.8229L3573.01 27.1771L3574.01 38.4271L3577.99 38.0729ZM3575 25H3557V29H3575V25ZM3555 27V102H3559V27H3555ZM3557 104H3577V100H3557V104ZM3579 102V61.25H3575V102H3579ZM3579 61.25C3579 55.9407 3580.66 52.3636 3583.31 50.0768C3586.01 47.747 3590.04 46.5 3595.25 46.5V42.5C3589.46 42.5 3584.37 43.878 3580.69 47.0482C3576.97 50.2614 3575 55.0593 3575 61.25H3579ZM3595.25 46.5C3598.66 46.5 3602.84 46.7445 3607.02 47.2363L3607.48 43.2637C3603.16 42.7555 3598.84 42.5 3595.25 42.5V46.5ZM3609.25 45.277L3609.5 26.777L3605.5 26.723L3605.25 45.223L3609.25 45.277ZM3607.93 24.7976C3605.54 24.2667 3603.15 24 3600.75 24V28C3602.85 28 3604.96 28.2333 3607.07 28.7024L3607.93 24.7976ZM3671.5 102L3669.84 103.112L3670.43 104H3671.5V102ZM3695 102V104H3698.77L3696.66 100.88L3695 102ZM3664.25 56.5L3662.84 55.0798L3661.67 56.2468L3662.59 57.6199L3664.25 56.5ZM3694 27L3695.41 28.4202L3698.86 25H3694V27ZM3669 27V25H3668.14L3667.55 25.6225L3669 27ZM3640.5 57H3638.5V62.0091L3641.95 58.3775L3640.5 57ZM3640.5 2H3642.5V0H3640.5V2ZM3620.5 2V0H3618.5V2H3620.5ZM3620.5 102H3618.5V104H3620.5V102ZM3640.5 102V104H3642.5V102H3640.5ZM3640.5 79.75L3639.1 78.3175L3638.5 78.9063V79.75H3640.5ZM3650.25 70.25L3651.91 69.1376L3650.58 67.1405L3648.85 68.8175L3650.25 70.25ZM3671.5 104H3695V100H3671.5V104ZM3696.66 100.88L3665.91 55.3801L3662.59 57.6199L3693.34 103.12L3696.66 100.88ZM3665.66 57.9202L3695.41 28.4202L3692.59 25.5798L3662.84 55.0798L3665.66 57.9202ZM3694 25H3669V29H3694V25ZM3667.55 25.6225L3639.05 55.6225L3641.95 58.3775L3670.45 28.3775L3667.55 25.6225ZM3642.5 57V2H3638.5V57H3642.5ZM3640.5 0H3620.5V4H3640.5V0ZM3618.5 2V102H3622.5V2H3618.5ZM3620.5 104H3640.5V100H3620.5V104ZM3642.5 102V79.75H3638.5V102H3642.5ZM3641.9 81.1825L3651.65 71.6825L3648.85 68.8175L3639.1 78.3175L3641.9 81.1825ZM3648.59 71.3624L3669.84 103.112L3673.16 100.888L3651.91 69.1376L3648.59 71.3624ZM3734.25 55.75L3734.71 53.8046L3734.7 53.802L3734.25 55.75ZM3753 49.5L3751.81 51.1071L3753.45 52.3243L3754.63 50.6545L3753 49.5ZM3763.25 35L3764.88 36.1545L3766.08 34.4548L3764.34 33.3221L3763.25 35ZM3729.75 72.75L3729.28 74.6946L3729.29 74.6968L3729.75 72.75ZM3708.25 77.75L3709.6 76.273L3707.94 74.7576L3706.63 76.5821L3708.25 77.75ZM3698 92L3696.38 90.8321L3695.31 92.308L3696.68 93.5052L3698 92ZM3732 105.25C3742.61 105.25 3751.2 103.084 3757.2 98.7812C3763.28 94.4139 3766.5 87.9791 3766.5 80H3762.5C3762.5 86.7709 3759.84 91.9611 3754.87 95.5313C3749.8 99.1661 3742.14 101.25 3732 101.25V105.25ZM3766.5 80C3766.5 73.2038 3764.21 67.8538 3758.87 63.5935C3753.7 59.4604 3745.77 56.4429 3734.71 53.8046L3733.79 57.6954C3744.73 60.3071 3751.93 63.1646 3756.38 66.719C3760.67 70.1462 3762.5 74.2962 3762.5 80H3766.5ZM3734.7 53.802C3729.31 52.5476 3726.14 51.5367 3724.33 50.5103C3723.46 50.0163 3723.04 49.5895 3722.82 49.2506C3722.62 48.939 3722.5 48.5686 3722.5 48H3718.5C3718.5 49.1814 3718.76 50.3422 3719.46 51.4213C3720.14 52.473 3721.13 53.2962 3722.36 53.9897C3724.73 55.3383 3728.44 56.4524 3733.8 57.698L3734.7 53.802ZM3722.5 48C3722.5 47.0605 3722.96 46.2165 3724.36 45.4956C3725.83 44.733 3728.16 44.25 3731.25 44.25V40.25C3727.84 40.25 3724.79 40.767 3722.52 41.9419C3720.16 43.1585 3718.5 45.1895 3718.5 48H3722.5ZM3731.25 44.25C3739.31 44.25 3745.39 46.3528 3751.81 51.1071L3754.19 47.8929C3747.11 42.6472 3740.19 40.25 3731.25 40.25V44.25ZM3754.63 50.6545L3764.88 36.1545L3761.62 33.8455L3751.37 48.3455L3754.63 50.6545ZM3764.34 33.3221C3754.8 27.1354 3744.68 23.75 3733 23.75V27.75C3743.82 27.75 3753.2 30.8646 3762.16 36.6779L3764.34 33.3221ZM3733 23.75C3723.09 23.75 3714.76 26.0631 3708.85 30.3857C3702.88 34.7514 3699.5 41.0938 3699.5 48.75H3703.5C3703.5 42.4062 3706.24 37.2486 3711.21 33.6143C3716.24 29.9369 3723.66 27.75 3733 27.75V23.75ZM3699.5 48.75C3699.5 55.3133 3701.86 60.6913 3706.92 64.9924C3711.87 69.2012 3719.3 72.2932 3729.28 74.6945L3730.22 70.8055C3720.45 68.4568 3713.75 65.5488 3709.51 61.9451C3705.39 58.4337 3703.5 54.1867 3703.5 48.75H3699.5ZM3729.29 74.6968C3735.69 76.2024 3739.32 77.3416 3741.34 78.4203C3742.32 78.9446 3742.76 79.3737 3742.97 79.6802C3743.15 79.9452 3743.25 80.2461 3743.25 80.75H3747.25C3747.25 79.6289 3747 78.4923 3746.27 77.4214C3745.57 76.392 3744.52 75.5866 3743.22 74.8922C3740.68 73.5334 3736.56 72.2976 3730.21 70.8032L3729.29 74.6968ZM3743.25 80.75C3743.25 81.5501 3742.74 82.4648 3740.77 83.2751C3738.83 84.0732 3736 84.5 3732.75 84.5V88.5C3736.25 88.5 3739.67 88.0518 3742.29 86.9749C3744.88 85.9102 3747.25 83.9499 3747.25 80.75H3743.25ZM3732.75 84.5C3722.96 84.5 3714.95 81.159 3709.6 76.273L3706.9 79.227C3713.05 84.841 3722.04 88.5 3732.75 88.5V84.5ZM3706.63 76.5821L3696.38 90.8321L3699.62 93.1679L3709.87 78.9179L3706.63 76.5821ZM3696.68 93.5052C3705.12 100.891 3718.13 105.25 3732 105.25V101.25C3718.87 101.25 3706.88 97.1087 3699.32 90.4948L3696.68 93.5052ZM3797.25 37.5L3795.26 37.6896L3795.74 42.7549L3798.84 38.7169L3797.25 37.5ZM3796.25 27L3798.24 26.8104L3798.07 25H3796.25V27ZM3778.25 27V25H3776.25V27H3778.25ZM3778.25 127H3776.25V129H3778.25V127ZM3798.25 127V129H3800.25V127H3798.25ZM3798.25 93.25L3799.72 91.8959L3796.25 88.1221V93.25H3798.25ZM3821.5 23.75C3810.63 23.75 3801.79 28.2874 3795.66 36.2831L3798.84 38.7169C3804.21 31.7126 3811.87 27.75 3821.5 27.75V23.75ZM3799.24 37.3104L3798.24 26.8104L3794.26 27.1896L3795.26 37.6896L3799.24 37.3104ZM3796.25 25H3778.25V29H3796.25V25ZM3776.25 27V127H3780.25V27H3776.25ZM3778.25 129H3798.25V125H3778.25V129ZM3800.25 127V93.25H3796.25V127H3800.25ZM3796.78 94.6041C3802.9 101.257 3811.18 105.25 3821.5 105.25V101.25C3812.32 101.25 3805.1 97.7428 3799.72 91.8959L3796.78 94.6041ZM3821.5 105.25C3831.59 105.25 3840.16 101.115 3846.16 93.8706C3852.15 86.6565 3855.5 76.4852 3855.5 64.5H3851.5C3851.5 75.7648 3848.35 84.9685 3843.09 91.3169C3837.84 97.6347 3830.41 101.25 3821.5 101.25V105.25ZM3855.5 64.5C3855.5 52.4128 3852.29 42.2358 3846.36 35.0406C3840.39 27.8062 3831.82 23.75 3821.5 23.75V27.75C3830.68 27.75 3838.11 31.3188 3843.27 37.5844C3848.46 43.8892 3851.5 53.0872 3851.5 64.5H3855.5ZM3815.25 84.75C3810.18 84.75 3806.34 82.8623 3803.73 79.5428C3801.06 76.162 3799.5 71.0895 3799.5 64.5H3795.5C3795.5 71.6605 3797.19 77.713 3800.59 82.0197C3804.03 86.3877 3809.07 88.75 3815.25 88.75V84.75ZM3799.5 64.5C3799.5 57.9105 3801.06 52.838 3803.73 49.4572C3806.34 46.1377 3810.18 44.25 3815.25 44.25V40.25C3809.07 40.25 3804.03 42.6123 3800.59 46.9803C3797.19 51.287 3795.5 57.3395 3795.5 64.5H3799.5ZM3815.25 44.25C3820.32 44.25 3824.23 46.1415 3826.91 49.4728C3829.63 52.8571 3831.25 57.9268 3831.25 64.5H3835.25C3835.25 57.3232 3833.49 51.2679 3830.03 46.9647C3826.52 42.6085 3821.43 40.25 3815.25 40.25V44.25ZM3831.25 64.5C3831.25 71.0732 3829.63 76.1429 3826.91 79.5272C3824.23 82.8585 3820.32 84.75 3815.25 84.75V88.75C3821.43 88.75 3826.52 86.3915 3830.03 82.0353C3833.49 77.7321 3835.25 71.6768 3835.25 64.5H3831.25ZM3863.5 38.5L3862.13 37.046L3860.65 38.4445L3862.07 39.8996L3863.5 38.5ZM3875.5 50.75L3874.07 52.1496L3875.49 53.5931L3876.91 52.1642L3875.5 50.75ZM3894.25 56.75L3894.02 54.7637L3894.01 54.7645L3894 54.7654L3894.25 56.75ZM3912.5 91.25L3914.46 90.8699L3913.57 86.238L3910.86 90.1031L3912.5 91.25ZM3935.5 102L3935.83 103.973L3937.5 103.694V102H3935.5ZM3935.5 84.75H3937.5V82.75H3935.5V84.75ZM3896.25 69.75L3896.57 71.7245L3896.59 71.7213L3896.61 71.7177L3896.25 69.75ZM3909 66.25H3911V62.7679L3907.99 64.5224L3909 66.25ZM3932.5 82.75C3931.48 82.75 3930.99 82.4763 3930.76 82.242C3930.52 82.0078 3930.25 81.5225 3930.25 80.5H3926.25C3926.25 82.2275 3926.73 83.8672 3927.93 85.0705C3929.13 86.2737 3930.77 86.75 3932.5 86.75V82.75ZM3930.25 80.5V51H3926.25V80.5H3930.25ZM3930.25 51C3930.25 42.5968 3927.16 35.6873 3921.33 30.9204C3915.55 26.1959 3907.3 23.75 3897.25 23.75V27.75C3906.7 27.75 3913.95 30.0541 3918.8 34.0171C3923.59 37.9377 3926.25 43.6532 3926.25 51H3930.25ZM3897.25 23.75C3883.29 23.75 3871.53 28.1622 3862.13 37.046L3864.87 39.954C3873.47 31.8378 3884.21 27.75 3897.25 27.75V23.75ZM3862.07 39.8996L3874.07 52.1496L3876.93 49.3504L3864.93 37.1004L3862.07 39.8996ZM3876.91 52.1642C3882.31 46.7663 3888.81 44 3896 44V40C3887.69 40 3880.19 43.2337 3874.09 49.3358L3876.91 52.1642ZM3896 44C3900.03 44 3903.01 44.7765 3904.9 45.9276C3906.73 47.0397 3907.5 48.446 3907.5 50H3911.5C3911.5 46.804 3909.77 44.2103 3906.98 42.5099C3904.24 40.8485 3900.47 40 3896 40V44ZM3907.5 50C3907.5 50.9146 3906.94 51.8782 3904.38 52.8079C3901.88 53.7164 3898.3 54.2603 3894.02 54.7637L3894.48 58.7363C3898.7 58.2397 3902.74 57.6586 3905.75 56.5671C3908.69 55.4968 3911.5 53.5854 3911.5 50H3907.5ZM3894 54.7654C3887.02 55.6387 3878.59 56.9797 3871.9 60.7233C3868.52 62.615 3865.52 65.1502 3863.37 68.5948C3861.22 72.0484 3860 76.2994 3860 81.5H3864C3864 76.9506 3865.06 73.4516 3866.77 70.7098C3868.48 67.9591 3870.92 65.8537 3873.85 64.2142C3879.78 60.8953 3887.48 59.6113 3894.5 58.7346L3894 54.7654ZM3860 81.5C3860 88.53 3862.65 94.5254 3867.39 98.7436C3872.1 102.944 3878.74 105.25 3886.5 105.25V101.25C3879.51 101.25 3873.9 99.1814 3870.05 95.7564C3866.22 92.3496 3864 87.47 3864 81.5H3860ZM3886.5 105.25C3898 105.25 3908.44 100.543 3914.14 92.3969L3910.86 90.1031C3906.06 96.9565 3897 101.25 3886.5 101.25V105.25ZM3910.54 91.6301C3911.36 95.8742 3913.2 99.1985 3916.31 101.411C3919.37 103.588 3923.41 104.5 3928.25 104.5V100.5C3923.84 100.5 3920.75 99.6616 3918.63 98.1511C3916.55 96.6765 3915.14 94.3758 3914.46 90.8699L3910.54 91.6301ZM3928.25 104.5C3932.11 104.5 3934.22 104.242 3935.83 103.973L3935.17 100.027C3933.78 100.258 3931.89 100.5 3928.25 100.5V104.5ZM3937.5 102V84.75H3933.5V102H3937.5ZM3935.5 82.75H3932.5V86.75H3935.5V82.75ZM3891 85.5C3888.17 85.5 3886.24 84.818 3885.06 83.8362C3883.93 82.897 3883.25 81.4986 3883.25 79.5H3879.25C3879.25 82.5014 3880.32 85.103 3882.5 86.9138C3884.63 88.682 3887.58 89.5 3891 89.5V85.5ZM3883.25 79.5C3883.25 78.0408 3883.61 77.0126 3884.15 76.2325C3884.7 75.4326 3885.55 74.7534 3886.73 74.1679C3889.19 72.9537 3892.61 72.3636 3896.57 71.7245L3895.93 67.7755C3892.14 68.3864 3888.06 69.0463 3884.96 70.5821C3883.36 71.3716 3881.91 72.4424 3880.86 73.955C3879.8 75.4874 3879.25 77.3342 3879.25 79.5H3883.25ZM3896.61 71.7177C3901.96 70.7451 3906.63 69.9472 3910.01 67.9776L3907.99 64.5224C3905.37 66.0528 3901.54 66.7549 3895.89 67.7823L3896.61 71.7177ZM3907 66.25V72.75H3911V66.25H3907ZM3907 72.75C3907 79.5371 3900.29 85.5 3891 85.5V89.5C3901.71 89.5 3911 82.4629 3911 72.75H3907ZM4017.5 80.75L4019.42 81.3216L4019.99 79.4127L4018.08 78.8357L4017.5 80.75ZM3998.5 75L3999.08 73.0857L3997.27 72.5389L3996.62 74.3115L3998.5 75ZM3998.5 54L3996.62 54.6885L3997.27 56.4611L3999.08 55.9143L3998.5 54ZM4017.5 48.25L4018.08 50.1643L4019.99 49.5873L4019.42 47.6784L4017.5 48.25ZM3982.75 105.25C4000.64 105.25 4014.85 96.6336 4019.42 81.3216L4015.58 80.1784C4011.65 93.3664 3999.36 101.25 3982.75 101.25V105.25ZM4018.08 78.8357L3999.08 73.0857L3997.92 76.9143L4016.92 82.6643L4018.08 78.8357ZM3996.62 74.3115C3995.35 77.7717 3993.5 80.3591 3991.18 82.083C3988.88 83.7989 3985.99 84.75 3982.5 84.75V88.75C3986.76 88.75 3990.5 87.5761 3993.57 85.292C3996.63 83.0159 3998.9 79.7283 4000.38 75.6885L3996.62 74.3115ZM3982.5 84.75C3977.56 84.75 3973.65 82.8655 3970.93 79.5196C3968.17 76.1284 3966.5 71.0567 3966.5 64.5H3962.5C3962.5 71.6933 3964.33 77.7466 3967.82 82.0429C3971.35 86.3845 3976.44 88.75 3982.5 88.75V84.75ZM3966.5 64.5C3966.5 57.9433 3968.17 52.8716 3970.93 49.4804C3973.65 46.1345 3977.56 44.25 3982.5 44.25V40.25C3976.44 40.25 3971.35 42.6155 3967.82 46.9571C3964.33 51.2534 3962.5 57.3067 3962.5 64.5H3966.5ZM3982.5 44.25C3985.99 44.25 3988.88 45.2011 3991.18 46.917C3993.5 48.6409 3995.35 51.2283 3996.62 54.6885L4000.38 53.3115C3998.9 49.2717 3996.63 45.9841 3993.57 43.708C3990.5 41.4239 3986.76 40.25 3982.5 40.25V44.25ZM3999.08 55.9143L4018.08 50.1643L4016.92 46.3357L3997.92 52.0857L3999.08 55.9143ZM4019.42 47.6784C4014.85 32.3664 4000.64 23.75 3982.75 23.75V27.75C3999.36 27.75 4011.65 35.6336 4015.58 48.8216L4019.42 47.6784ZM3982.75 23.75C3970.67 23.75 3960.45 27.7852 3953.24 34.992C3946.04 42.1988 3942 52.4205 3942 64.5H3946C3946 53.3295 3949.71 44.1762 3956.07 37.8205C3962.43 31.4648 3971.58 27.75 3982.75 27.75V23.75ZM3942 64.5C3942 76.5795 3946.04 86.8011 3953.24 94.008C3960.45 101.215 3970.67 105.25 3982.75 105.25V101.25C3971.58 101.25 3962.43 97.5352 3956.07 91.1795C3949.71 84.8239 3946 75.6705 3946 64.5H3942ZM4043.75 71V69H4041.31L4041.79 71.3922L4043.75 71ZM4098.5 71V73H4100.12L4100.46 71.4191L4098.5 71ZM4096.25 90.25L4097.71 91.6179L4099.05 90.1905L4097.65 88.8213L4096.25 90.25ZM4084 78.25L4085.4 76.8213L4083.91 75.3651L4082.52 76.9082L4084 78.25ZM4079.25 56.5V58.5H4081.71L4081.21 56.088L4079.25 56.5ZM4044 56.5L4042.06 56.0273L4041.46 58.5H4044V56.5ZM4043.75 73H4098.5V69H4043.75V73ZM4100.46 71.4191C4101.24 67.7515 4101.25 66.1067 4101.25 64.5H4097.25C4097.25 65.8933 4097.26 67.2485 4096.54 70.5809L4100.46 71.4191ZM4101.25 64.5C4101.25 52.3378 4097.49 42.1196 4090.6 34.9287C4083.7 27.7287 4073.84 23.75 4062 23.75V27.75C4072.91 27.75 4081.67 31.3963 4087.71 37.6963C4093.76 44.0054 4097.25 53.1622 4097.25 64.5H4101.25ZM4062 23.75C4050.03 23.75 4039.99 27.8596 4032.94 35.1057C4025.9 42.3456 4022 52.5599 4022 64.5H4026C4026 53.4401 4029.6 44.2794 4035.81 37.8943C4042.01 31.5154 4050.97 27.75 4062 27.75V23.75ZM4022 64.5C4022 76.014 4025.43 86.2375 4032.43 93.5964C4039.43 100.973 4049.81 105.25 4063.25 105.25V101.25C4050.69 101.25 4041.44 97.2766 4035.32 90.8411C4029.19 84.3875 4026 75.236 4026 64.5H4022ZM4063.25 105.25C4078.24 105.25 4089.79 100.064 4097.71 91.6179L4094.79 88.8821C4087.71 96.4364 4077.26 101.25 4063.25 101.25V105.25ZM4097.65 88.8213L4085.4 76.8213L4082.6 79.6787L4094.85 91.6787L4097.65 88.8213ZM4082.52 76.9082C4078.17 81.7165 4071.97 84.75 4063.5 84.75V88.75C4073.03 88.75 4080.33 85.2835 4085.48 79.5918L4082.52 76.9082ZM4063.5 84.75C4058.49 84.75 4054.52 83.4136 4051.6 81.0661C4048.68 78.7216 4046.64 75.2312 4045.71 70.6078L4041.79 71.3922C4042.86 76.7688 4045.32 81.1534 4049.09 84.1839C4052.86 87.2114 4057.76 88.75 4063.5 88.75V84.75ZM4062 43.75C4066.23 43.75 4069.56 44.9427 4072.04 47.0787C4074.54 49.2259 4076.36 52.4802 4077.29 56.912L4081.21 56.088C4080.14 51.0198 4077.96 46.8991 4074.65 44.0463C4071.32 41.1823 4067.02 39.75 4062 39.75V43.75ZM4079.25 54.5H4044V58.5H4079.25V54.5ZM4045.94 56.9727C4046.98 52.6905 4048.98 49.4081 4051.65 47.1978C4054.31 44.9949 4057.79 43.75 4062 43.75V39.75C4056.96 39.75 4052.56 41.2551 4049.1 44.1147C4045.65 46.9669 4043.27 51.0595 4042.06 56.0273L4045.94 56.9727Z" fill="url(#paint0_linear_220_36651)" fill-opacity="0.8"/>
<defs>
<linearGradient id="paint0_linear_220_36651" x1="2028" y1="-46" x2="2028" y2="146" gradientUnits="userSpaceOnUse">
<stop stop-color="#4238E5"/>
<stop offset="1" stop-color="#E01DAA"/>
</linearGradient>
</defs>
</svg>
